<?xml version="1.0" encoding="UTF-8"?>
<svg id="Layer_1" xmlns="http://www.w3.org/2000/svg" version="1.1" viewBox="0 0 96.67 97.71">
  <!-- Generator: Adobe Illustrator 29.6.1, SVG Export Plug-In . SVG Version: 2.1.1 Build 9)  -->
  <defs>
    <style>
      .st0 {
        fill: #f7941d;
      }
    </style>
  </defs>
  <path class="st0" d="M48.94,95.09l-.79,1.04-.79-1.05s-2.23-3.03-4.83-7.19c.83-.52,1.62-1.1,2.34-1.81.38-.37.69-.83,1.03-1.25,1.5,1.93,3.52,3.46,5.86,4.38.35.14.73.21,1.09.32-2.18,3.28-3.88,5.54-3.9,5.56Z"/>
  <path class="st0" d="M76.59,79.43c-.12.55-.27,1.08-.48,1.6-1.97,4.98-7.73,7.52-13.12,5.77l-.4-.13-.37.21c-1.68.91-3.62,1.36-5.62,1.32-1.42-.03-2.81-.31-4.12-.82-2.18-.85-4.05-2.32-5.36-4.17,1.07-1.8,1.75-3.84,1.97-5.95,2.75-1.62,4.89-4.16,6.06-7.18.87-2.21,1.17-4.53.91-6.89-.34-2.99-1.57-5.75-3.55-8l-.64-1.12-.02-.03c-.15-.23-.3-.48-.5-.77l-.11-.16c-.16-.24-.33-.46-.51-.7l-.12-.18c-.16-.21-.31-.4-.47-.6-.05-.07-.1-.13-.14-.19-.13-.16-.28-.32-.41-.47.91-.63,1.86-1.18,2.85-1.65,1.37-.65,2.79-1.16,4.25-1.52l1.46-.3.1-.04c2.39-1.06,5.01-1.35,7.59-.82,1.8.36,3.45,1.11,4.93,2.19.16.13.34.26.51.39,2.28,1.87,3.84,4.47,4.37,7.34l.09.53.51.2c.99.4,1.92.92,2.78,1.55h0c.91.68,1.74,1.48,2.43,2.37.53.65.96,1.35,1.32,2.07,1.16,2.31,1.51,4.84,1,7.3-.27,1.33-.78,2.59-1.51,3.73-1.21,1.92-2.99,3.44-5.13,4.42l-.45.21-.09.48Z"/>
  <path class="st0" d="M94.37,61.32l.74,1.08-1.24.42s-3.56,1.2-8.33,2.38c-.24-.95-.55-1.89-1-2.8-.24-.48-.57-.91-.87-1.37,2.3-.84,4.36-2.26,5.97-4.22.24-.29.42-.62.64-.94,2.45,3.09,4.07,5.4,4.08,5.43Z"/>
  <path class="st0" d="M82.95,21.34c.73.53,1.39,1.17,1.97,1.87,1.45,1.74,2.36,3.91,2.62,6.23l.05.5.44.24c.49.28.93.59,1.36.95,4.14,3.41,4.77,9.68,1.44,14.26l-.25.35.08.42c.35,1.88.18,3.88-.49,5.75-.47,1.34-1.16,2.57-2.05,3.66-1.5,1.82-3.44,3.14-5.62,3.82-1.39-1.58-3.12-2.85-5.05-3.72-.7-3.12-2.44-5.93-4.96-7.98-1.83-1.51-3.96-2.51-6.27-3-2.95-.6-5.95-.29-8.7.91l-1.27.26h-.03c-1.24.31-2.45.71-3.61,1.2-.31-1.06-.53-2.13-.68-3.21-.2-1.5-.24-3.01-.13-4.51l.16-1.48v-.11c-.28-2.61.26-5.19,1.56-7.48,1.01-1.78,2.41-3.25,4.12-4.36,2.49-1.6,5.45-2.27,8.33-1.88l.54.07.34-.42c1.43-1.7,3.28-3,5.35-3.75.78-.3,1.58-.5,2.38-.62,2.55-.38,5.07.07,7.25,1.31.39.21.76.46,1.1.71Z"/>
  <path class="st0" d="M76.27,7.69l1.29-.38v1.31s.05,3.75-.3,8.66c-.98-.06-1.96-.06-2.96.1-.51.07-1.04.26-1.56.4-.09-2.46-.79-4.86-2.17-6.99-.21-.32-.46-.6-.69-.9,3.69-1.38,6.39-2.19,6.39-2.19Z"/>
  <path class="st0" d="M33.73,7.01c1.01-.91,2.15-1.63,3.41-2.13,2.11-.83,4.44-1.02,6.74-.56l.5.11.37-.34c.41-.38.84-.71,1.31-1.01,3.51-2.24,8.05-2,11.57.59.93.68,1.75,1.51,2.44,2.46l.26.35.42.06c1.81.23,3.59.96,5.14,2.09.07.05.13.1.18.14,1.13.85,2.09,1.9,2.85,3.09,1.27,1.98,1.93,4.23,1.9,6.52-1.93.84-3.67,2.08-5.1,3.65-3.18-.29-6.4.5-9.13,2.25-2,1.29-3.61,2.99-4.78,5.05-1.49,2.62-2.1,5.57-1.83,8.54l-.14,1.29v.03c-.1,1.26-.09,2.54.02,3.81-1.09-.04-2.2-.15-3.27-.35-1.48-.28-2.94-.71-4.34-1.27l-1.34-.61-.1-.02c-1.74-.37-3.35-1.09-4.8-2.15-.66-.48-1.28-1.04-1.83-1.65-1.38-1.51-2.35-3.28-2.87-5.27-.76-2.87-.48-5.88.77-8.51l.23-.48-.28-.47c-1.18-1.88-1.85-4.04-1.93-6.25-.04-.83,0-1.66.15-2.45.42-2.56,1.62-4.8,3.48-6.5Z"/>
  <path class="st0" d="M19.73,6.98l1.25.38s3.6,1.13,8.15,2.97c-.37.91-.67,1.85-.84,2.85-.08.52-.07,1.07-.1,1.6-2.35-.67-4.86-.72-7.32-.1-.37.1-.71.26-1.07.39-.17-3.95-.11-6.76-.1-6.79l.03-1.31Z"/>
  <path class="st0" d="M4.94,44.68c-.14-2.27.39-4.54,1.55-6.58l.26-.44-.22-.46c-.22-.5-.41-1.02-.55-1.56-1.35-5.19,1.83-10.63,7.22-12.38l.4-.14.18-.38c.83-1.73,2.13-3.24,3.77-4.38,1.17-.81,2.45-1.39,3.82-1.75,2.3-.59,4.63-.52,6.79.21.2,2.1.84,4.14,1.9,5.98-1.26,2.92-1.51,6.23-.69,9.37.61,2.3,1.73,4.35,3.33,6.1.65.71,1.37,1.35,2.13,1.91,1.63,1.2,3.46,2.03,5.44,2.47l1.18.53.03.02c1.17.47,2.39.86,3.62,1.15-.44,1.23-.99,2.42-1.64,3.54-.06.11-.12.21-.2.33-.08.14-.17.29-.26.44-.07.11-.14.22-.21.33-.11.16-.22.32-.34.49l-.02.03-.12.17c-.15.21-.31.42-.46.63-.04.06-.07.1-.12.16-.18.23-.35.44-.51.63l-1,1.1-.04.09c-1.33,2.27-3.28,4.04-5.67,5.12-1.87.86-3.86,1.22-5.9,1.11-2.44-.14-4.75-.97-6.69-2.39-.41-.3-.8-.63-1.17-.98l-.39-.38-.53.13c-.21.07-.45.1-.73.17-.07.01-.14.02-.2.04-.24.04-.46.07-.67.1h-.07c-.24.04-.5.05-.77.07h-.13c-.24.02-.48.02-.71.02h-.05c-.26,0-.51-.02-.76-.04h-.09c-.25-.03-.5-.06-.77-.09-.53-.09-1.07-.2-1.57-.35-.8-.22-1.58-.52-2.29-.89-.55-.28-1.08-.61-1.57-.98-1.56-1.15-2.75-2.6-3.53-4.35-.56-1.24-.89-2.54-.97-3.9Z"/>
  <path class="st0" d="M2.79,62.32l-1.24-.44.75-1.07s2.2-3.08,5.36-6.84c.76.63,1.56,1.22,2.45,1.68.47.24.99.4,1.49.59-1.37,2.03-2.2,4.39-2.35,6.93-.02.38.02.76.03,1.14-3.8-1.06-6.46-1.99-6.49-1.99Z"/>
  <path class="st0" d="M15.01,73.11v-.43s-.3-.29-.3-.29c-1.39-1.31-2.43-3.02-3-4.94-.4-1.35-.57-2.76-.48-4.17.14-2.36.94-4.56,2.29-6.39.35.08.71.15,1.08.2.31.05.61.08.92.1h.04c.29.04.59.05.89.05h.08c.26,0,.53,0,.82,0h.14c.3-.02.61-.05.88-.08h.09c.24-.04.49-.07.77-.13.06,0,.15-.02.21-.03.12-.02.24-.05.34-.06.31.26.63.53.96.77,2.25,1.66,4.93,2.61,7.74,2.77,2.37.12,4.68-.3,6.84-1.28,2.72-1.24,4.98-3.26,6.5-5.84l.86-.96.03-.03c.18-.21.36-.44.57-.7l.12-.17c.18-.22.34-.44.5-.67l.14-.19.02-.03c.12-.17.25-.35.36-.53.09-.12.15-.24.23-.36.09-.15.18-.29.27-.44l.04.03c.4.31.79.65,1.18,1l.19.17c.17.16.34.32.51.48.09.08.17.17.26.26.09.08.18.18.26.27l.03.02c.13.15.28.3.42.46.06.08.13.15.2.22.14.16.28.33.42.51.05.04.09.11.14.17.15.17.29.35.42.54l.14.17c.15.21.3.42.46.65l.09.14c.19.27.33.48.45.69l.74,1.29.08.08c1.75,1.96,2.82,4.36,3.12,6.98.22,2.04-.03,4.04-.78,5.96-1.08,2.76-3.08,5.04-5.63,6.42l-.48.25-.04.55c-.16,2.21-.88,4.35-2.11,6.18-.47.7-.99,1.34-1.57,1.9-1.84,1.83-4.14,2.94-6.64,3.22-1.34.14-2.69.05-4-.28-1.43-.37-2.78-1.01-4-1.91-.65-.47-1.24-1.02-1.79-1.6l-.33-.38-.51.06c-.55.06-1.1.07-1.65.04-1.87-.12-3.66-.77-5.19-1.89-2.72-2-4.35-5.3-4.36-8.81Z"/>
</svg>