<?xml version="1.0" encoding="UTF-8"?>
<svg id="Layer_1" xmlns="http://www.w3.org/2000/svg" version="1.1" viewBox="0 0 252.68 78.48">
  <!-- Generator: Adobe Illustrator 29.6.1, SVG Export Plug-In . SVG Version: 2.1.1 Build 9)  -->
  <defs>
    <style>
      .st0 {
        fill: #231f20;
      }
    </style>
  </defs>
  <g>
    <path class="st0" d="M92.6,32.7h-4.04l-.82-5.17h-5.1l-.82,5.17h-4.02v-.07l5.28-27.22h4.28l5.24,27.29ZM87.16,24.03l-1.99-12.29-2,12.29h3.99Z"/>
    <path class="st0" d="M111.35,32.7h-3.92v-13.44c0-.71.08-1.7.24-2.96l-3.52,13.91h-2.07l-3.54-13.91c.16,1.29.24,2.28.24,2.96v13.44h-3.92V5.45h3.85l4.28,15.06c.05.16.08.57.1,1.24,0-.29.03-.7.1-1.24l4.28-15.06h3.85v27.25Z"/>
    <path class="st0" d="M128.42,32.7h-4.04l-.82-5.17h-5.1l-.82,5.17h-4.02v-.07l5.28-27.22h4.28l5.24,27.29ZM122.98,24.03l-1.99-12.29-2,12.29h3.99Z"/>
    <path class="st0" d="M144.51,32.7h-3.57l-6.53-17.15c.17.84.26,1.49.26,1.97v15.18h-3.97V5.45h3.57l6.53,16.8c-.17-.84-.26-1.49-.26-1.97V5.45h3.97v27.25Z"/>
    <path class="st0" d="M161.59,32.7h-4.04l-.82-5.17h-5.1l-.82,5.17h-4.02v-.07l5.28-27.22h4.28l5.24,27.29ZM156.16,24.03l-1.99-12.29-2,12.29h3.99Z"/>
    <path class="st0" d="M175.71,9.05h-4.49v23.65h-4.06V9.05h-4.49v-3.6h13.04v3.6Z"/>
    <path class="st0" d="M198.19,30.21c0,1.66-.82,2.49-2.47,2.49h-8.2c-1.64,0-2.46-.83-2.46-2.49v-6.5h4.08v5.55h4.98v-5.35l-8.17-7.73c-.59-.57-.89-1.29-.89-2.18v-6.06c0-1.67.82-2.51,2.46-2.51h8.2c1.65,0,2.47.82,2.47,2.47v6.09h-4.08v-5.14h-4.98v4.93l8.17,7.7c.59.56.89,1.29.89,2.21v6.5Z"/>
    <path class="st0" d="M215.14,32.7h-4.11v-12.22h-5.52v12.22h-4.08V5.45h4.08v11.23h5.52V5.45h4.11v27.25Z"/>
    <path class="st0" d="M232.19,32.7h-4.04l-.82-5.17h-5.1l-.82,5.17h-4.02v-.07l5.28-27.22h4.28l5.24,27.29ZM226.75,24.03l-1.99-12.29-2,12.29h3.99Z"/>
    <path class="st0" d="M248.17,32.7h-4.11v-12.22h-5.52v12.22h-4.08V5.45h4.08v11.23h5.52V5.45h4.11v27.25Z"/>
    <path class="st0" d="M89.5,70.38h-10.71v-27.25h4.08v23.61h6.63v3.64Z"/>
    <path class="st0" d="M105.55,67.89c0,1.66-.84,2.49-2.51,2.49h-8.66c-1.65,0-2.47-.83-2.47-2.49v-24.76h4.08v23.75h5.49v-23.75h4.08v24.76Z"/>
    <path class="st0" d="M122.63,70.38h-3.57l-6.53-17.15c.17.84.26,1.49.26,1.97v15.18h-3.97v-27.25h3.57l6.53,16.8c-.17-.84-.26-1.49-.26-1.97v-14.84h3.97v27.25Z"/>
    <path class="st0" d="M139.39,67.89c0,1.66-.83,2.49-2.49,2.49h-8.57c-1.61,0-2.42-.83-2.42-2.49v-22.25c0-1.67.82-2.51,2.47-2.51h8.52c1.66,0,2.49.84,2.49,2.51v5.82h-4.09v-4.82h-5.31v20.25h5.31v-7.63h-3.03v-3.46h7.12v12.1Z"/>
    <path class="st0" d="M146.79,70.38h-4.07v-27.25h4.07v27.25Z"/>
  </g>
  <g>
    <path class="st0" d="M37.57,74.62l-.59.77-.59-.78s-1.66-2.24-3.58-5.33c.62-.39,1.2-.82,1.74-1.34.28-.28.51-.61.76-.93,1.11,1.43,2.61,2.57,4.35,3.25.26.1.54.16.81.24-1.61,2.44-2.88,4.11-2.89,4.13Z"/>
    <path class="st0" d="M58.08,63.01c-.09.41-.2.8-.36,1.19-1.46,3.69-5.73,5.58-9.73,4.28l-.3-.1-.28.15c-1.25.68-2.69,1.01-4.17.98-1.05-.02-2.08-.23-3.06-.61-1.62-.63-3.01-1.72-3.98-3.09.79-1.34,1.3-2.85,1.46-4.41,2.04-1.2,3.63-3.09,4.49-5.33.64-1.64.86-3.36.68-5.11-.26-2.22-1.16-4.26-2.63-5.93l-.48-.83-.02-.02c-.11-.17-.22-.36-.37-.57l-.08-.12c-.12-.18-.25-.34-.38-.52l-.09-.13c-.12-.15-.23-.29-.35-.44-.04-.05-.08-.1-.11-.14-.1-.12-.2-.24-.3-.35.67-.46,1.38-.87,2.11-1.22,1.01-.48,2.07-.86,3.15-1.13l1.08-.22.08-.03c1.77-.79,3.72-1,5.63-.6,1.33.27,2.56.82,3.66,1.62.12.1.25.19.37.29,1.69,1.39,2.85,3.32,3.24,5.45l.07.39.38.15c.74.29,1.43.68,2.06,1.15h0c.67.5,1.29,1.09,1.8,1.76.39.48.71,1,.98,1.53.86,1.72,1.12,3.59.74,5.42-.2.99-.58,1.92-1.12,2.76-.9,1.42-2.22,2.55-3.8,3.28l-.34.15-.07.36Z"/>
    <path class="st0" d="M71.27,49.58l.55.8-.92.31s-2.64.89-6.18,1.77c-.18-.71-.4-1.4-.74-2.07-.18-.35-.42-.67-.64-1.01,1.71-.62,3.23-1.68,4.43-3.13.18-.22.31-.46.47-.69,1.82,2.29,3.02,4.01,3.03,4.03Z"/>
    <path class="st0" d="M62.79,19.92c.54.4,1.03.87,1.46,1.39,1.07,1.29,1.75,2.9,1.94,4.62l.04.37.33.18c.36.21.69.44,1.01.7,3.07,2.53,3.54,7.18,1.07,10.58l-.19.26.06.31c.26,1.39.13,2.87-.36,4.27-.35.99-.86,1.9-1.52,2.72-1.11,1.35-2.55,2.33-4.17,2.83-1.03-1.17-2.31-2.12-3.75-2.76-.52-2.31-1.81-4.4-3.68-5.92-1.36-1.12-2.94-1.86-4.65-2.22-2.19-.44-4.41-.21-6.45.68l-.94.19h-.02c-.92.23-1.82.52-2.68.89-.23-.78-.39-1.58-.51-2.38-.15-1.11-.18-2.23-.09-3.34l.12-1.09v-.08c-.2-1.93.19-3.85,1.16-5.55.75-1.32,1.78-2.41,3.06-3.23,1.85-1.19,4.04-1.68,6.18-1.39l.4.05.25-.31c1.06-1.26,2.43-2.22,3.97-2.78.58-.22,1.17-.37,1.76-.46,1.89-.28,3.76.05,5.38.97.29.16.56.34.82.53Z"/>
    <path class="st0" d="M57.84,9.79l.96-.29v.97s.04,2.78-.22,6.42c-.72-.05-1.45-.05-2.2.07-.38.05-.77.19-1.16.3-.06-1.82-.59-3.6-1.61-5.19-.15-.24-.34-.44-.51-.66,2.74-1.03,4.74-1.63,4.74-1.63Z"/>
    <path class="st0" d="M26.28,9.3c.75-.68,1.6-1.21,2.53-1.58,1.56-.61,3.3-.76,5-.42l.37.08.27-.25c.3-.28.63-.53.97-.75,2.6-1.66,5.97-1.48,8.58.44.69.51,1.3,1.12,1.81,1.82l.19.26.31.04c1.34.17,2.67.71,3.81,1.55.05.04.09.08.14.11.84.63,1.55,1.41,2.11,2.29.94,1.47,1.43,3.14,1.41,4.83-1.43.62-2.72,1.54-3.78,2.71-2.36-.22-4.75.37-6.77,1.67-1.48.96-2.68,2.22-3.55,3.75-1.1,1.94-1.56,4.13-1.36,6.34l-.1.96v.03c-.07.93-.07,1.88.01,2.83-.81-.03-1.63-.11-2.42-.26-1.1-.21-2.18-.52-3.22-.94l-1-.45-.08-.02c-1.29-.27-2.49-.81-3.56-1.59-.49-.36-.95-.77-1.36-1.23-1.02-1.12-1.74-2.44-2.13-3.91-.56-2.13-.35-4.36.57-6.31l.17-.36-.21-.35c-.87-1.4-1.37-2.99-1.43-4.63-.03-.61,0-1.23.11-1.82.31-1.9,1.2-3.56,2.58-4.82Z"/>
    <path class="st0" d="M15.9,9.27l.93.29s2.67.84,6.05,2.2c-.27.68-.5,1.37-.62,2.11-.06.39-.05.79-.07,1.19-1.75-.5-3.61-.54-5.43-.08-.27.07-.53.19-.79.29-.12-2.93-.08-5.01-.08-5.03l.02-.97Z"/>
    <path class="st0" d="M4.94,37.23c-.11-1.68.29-3.37,1.15-4.88l.19-.33-.16-.34c-.16-.37-.31-.76-.41-1.16-1-3.85,1.36-7.88,5.36-9.18l.3-.1.14-.28c.61-1.28,1.58-2.4,2.8-3.25.87-.6,1.82-1.03,2.83-1.3,1.7-.44,3.43-.39,5.03.16.15,1.56.63,3.07,1.41,4.43-.93,2.17-1.12,4.62-.51,6.95.45,1.71,1.28,3.23,2.47,4.53.48.53,1.01,1,1.58,1.42,1.21.89,2.57,1.51,4.04,1.83l.88.4h.02c.87.36,1.78.65,2.69.87-.33.91-.73,1.79-1.22,2.63-.04.08-.09.16-.15.24-.06.11-.13.22-.19.33-.05.08-.11.17-.16.24-.08.12-.16.24-.25.36v.02s-.08.09-.11.13c-.11.16-.23.31-.34.46-.03.04-.05.07-.09.11-.13.17-.26.33-.38.47l-.74.81-.03.07c-.99,1.68-2.44,2.99-4.21,3.8-1.39.63-2.86.91-4.37.82-1.81-.11-3.52-.72-4.96-1.78-.3-.22-.59-.47-.87-.72l-.29-.28-.4.1c-.16.05-.33.08-.54.12-.05,0-.1.02-.15.03-.18.03-.34.05-.5.07h-.06c-.18.03-.37.04-.57.05h-.09c-.18.02-.35.01-.53.01h-.04c-.19,0-.38-.02-.56-.03h-.07c-.18-.02-.37-.05-.57-.06-.4-.07-.79-.15-1.17-.26-.6-.16-1.17-.39-1.7-.66-.41-.21-.8-.45-1.16-.72-1.16-.85-2.04-1.93-2.62-3.23-.41-.92-.66-1.89-.72-2.89Z"/>
    <path class="st0" d="M3.34,50.32l-.92-.32.56-.79s1.63-2.28,3.97-5.08c.56.47,1.16.9,1.81,1.25.35.18.74.29,1.11.44-1.02,1.51-1.63,3.26-1.74,5.14-.01.28.02.56.03.84-2.82-.79-4.79-1.47-4.81-1.47Z"/>
    <path class="st0" d="M12.4,58.32v-.32s-.22-.21-.22-.21c-1.03-.97-1.8-2.24-2.23-3.66-.3-1-.42-2.04-.36-3.09.1-1.75.69-3.38,1.7-4.74.26.06.53.11.8.15.23.03.45.06.68.07h.03c.21.03.44.04.66.04h.06c.19,0,.39,0,.61,0h.11c.23-.02.45-.04.66-.06h.07c.18-.03.37-.05.57-.09.05,0,.11-.02.16-.02.09-.02.17-.04.25-.05.23.2.46.39.71.57,1.67,1.23,3.66,1.93,5.74,2.06,1.76.09,3.47-.22,5.08-.95,2.02-.92,3.69-2.41,4.82-4.33l.64-.71.02-.02c.13-.15.27-.33.43-.52l.09-.13c.13-.16.26-.33.37-.5l.1-.14.02-.02c.09-.13.18-.26.27-.39.06-.09.11-.18.17-.27.06-.11.13-.21.2-.33l.03.02c.3.23.59.48.88.74l.14.12c.13.12.25.24.38.36.07.06.12.13.19.19.07.06.13.13.19.2l.02.02c.1.11.21.23.31.34.05.06.1.11.15.17.1.12.21.24.31.38.04.03.07.08.1.13.11.13.22.26.31.4l.1.13c.11.15.22.31.34.48l.06.11c.14.2.24.36.34.51l.55.96.06.06c1.3,1.46,2.09,3.24,2.32,5.18.17,1.51-.02,3-.58,4.42-.8,2.04-2.28,3.74-4.18,4.76l-.35.19-.03.41c-.12,1.64-.65,3.23-1.56,4.58-.35.52-.73.99-1.16,1.41-1.36,1.36-3.07,2.18-4.93,2.39-1,.1-2,.04-2.97-.21-1.06-.27-2.06-.75-2.97-1.41-.48-.35-.92-.75-1.32-1.18l-.25-.28-.37.05c-.4.05-.82.05-1.23.03-1.39-.09-2.72-.57-3.85-1.4-2.02-1.48-3.23-3.93-3.23-6.53Z"/>
  </g>
</svg>