<?xml version="1.0" encoding="UTF-8"?>
<svg id="Layer_1" xmlns="http://www.w3.org/2000/svg" version="1.1" viewBox="0 0 96.67 97.71">
  <!-- Generator: Adobe Illustrator 29.6.1, SVG Export Plug-In . SVG Version: 2.1.1 Build 9)  -->
  <defs>
    <style>
      .st0 {
        fill: #231f20;
      }
    </style>
  </defs>
  <path class="st0" d="M48.96,96.64l-.82,1.08-.82-1.09s-2.31-3.13-4.99-7.43c.86-.54,1.68-1.14,2.42-1.87.39-.38.71-.85,1.06-1.29,1.55,1.99,3.64,3.58,6.06,4.53.37.14.75.22,1.13.33-2.25,3.39-4.01,5.72-4.03,5.75Z"/>
  <path class="st0" d="M77.53,80.46c-.13.57-.28,1.12-.5,1.65-2.04,5.14-7.98,7.77-13.56,5.96l-.42-.14-.38.22c-1.74.94-3.74,1.41-5.81,1.36-1.47-.03-2.9-.32-4.26-.85-2.25-.88-4.19-2.39-5.54-4.3,1.1-1.86,1.81-3.97,2.04-6.14,2.84-1.68,5.05-4.3,6.26-7.42.89-2.28,1.2-4.68.94-7.12-.36-3.09-1.62-5.94-3.67-8.26l-.66-1.16-.02-.03c-.15-.23-.31-.5-.51-.8l-.11-.16c-.17-.25-.34-.48-.52-.72l-.12-.18c-.16-.21-.32-.41-.49-.62-.05-.07-.11-.14-.15-.19-.13-.17-.28-.33-.42-.48.94-.65,1.93-1.22,2.94-1.7,1.41-.67,2.88-1.2,4.39-1.57l1.51-.3.11-.05c2.47-1.1,5.18-1.39,7.84-.84,1.86.38,3.57,1.14,5.09,2.26.17.13.35.27.52.4,2.35,1.93,3.96,4.62,4.51,7.59l.1.55.53.21c1.02.41,1.99.95,2.88,1.6h0c.94.7,1.79,1.53,2.51,2.45.55.67.99,1.4,1.36,2.14,1.2,2.39,1.56,5,1.04,7.54-.28,1.38-.81,2.68-1.56,3.85-1.25,1.98-3.09,3.56-5.3,4.57l-.47.22-.1.5Z"/>
  <path class="st0" d="M95.9,61.75l.77,1.11-1.28.44s-3.68,1.24-8.61,2.46c-.25-.99-.56-1.95-1.03-2.89-.25-.49-.59-.94-.89-1.41,2.38-.87,4.51-2.34,6.17-4.36.25-.3.43-.64.66-.97,2.53,3.2,4.2,5.58,4.22,5.61Z"/>
  <path class="st0" d="M84.1,20.44c.75.55,1.43,1.21,2.04,1.94,1.5,1.8,2.43,4.04,2.7,6.44l.06.52.46.25c.5.29.96.61,1.41.98,4.28,3.53,4.93,10,1.48,14.73l-.26.36.09.43c.36,1.94.18,4-.5,5.94-.48,1.38-1.2,2.65-2.12,3.79-1.55,1.88-3.55,3.24-5.8,3.94-1.44-1.63-3.22-2.95-5.22-3.84-.73-3.22-2.52-6.13-5.13-8.24-1.89-1.56-4.09-2.59-6.48-3.1-3.05-.62-6.14-.3-8.99.94l-1.31.27h-.03c-1.28.32-2.53.73-3.73,1.24-.32-1.09-.55-2.2-.7-3.32-.2-1.55-.25-3.11-.13-4.66l.16-1.52v-.11c-.28-2.69.27-5.36,1.61-7.73,1.04-1.83,2.49-3.35,4.26-4.51,2.58-1.65,5.63-2.35,8.61-1.94l.56.07.35-.44c1.48-1.75,3.39-3.1,5.53-3.88.81-.31,1.63-.51,2.46-.64,2.64-.4,5.24.07,7.49,1.36.4.22.78.47,1.14.73Z"/>
  <path class="st0" d="M77.2,6.34l1.34-.4v1.35s.05,3.88-.31,8.95c-1.01-.06-2.02-.06-3.06.1-.53.08-1.07.27-1.61.41-.09-2.54-.82-5.02-2.24-7.22-.21-.33-.48-.62-.71-.93,3.82-1.43,6.6-2.27,6.6-2.27Z"/>
  <path class="st0" d="M33.24,5.64c1.04-.94,2.22-1.68,3.52-2.2,2.18-.86,4.59-1.06,6.96-.58l.51.12.38-.35c.42-.39.87-.74,1.36-1.05,3.63-2.31,8.32-2.06,11.95.61.96.71,1.81,1.56,2.52,2.54l.26.36.43.06c1.87.24,3.71.99,5.31,2.16.07.05.13.11.19.15,1.16.88,2.16,1.96,2.94,3.19,1.31,2.05,1.99,4.37,1.96,6.73-2,.86-3.8,2.15-5.26,3.77-3.28-.3-6.62.52-9.43,2.33-2.06,1.33-3.73,3.09-4.94,5.22-1.53,2.7-2.17,5.75-1.89,8.83l-.15,1.33v.03c-.1,1.3-.09,2.62.02,3.94-1.13-.04-2.27-.15-3.38-.36-1.53-.29-3.03-.73-4.48-1.31l-1.39-.63-.11-.03c-1.8-.38-3.47-1.13-4.95-2.22-.68-.5-1.32-1.07-1.89-1.71-1.42-1.56-2.43-3.39-2.96-5.45-.78-2.96-.49-6.07.8-8.79l.24-.5-.29-.48c-1.21-1.94-1.91-4.17-1.99-6.45-.04-.85.01-1.71.16-2.53.43-2.64,1.68-4.96,3.59-6.71Z"/>
  <path class="st0" d="M18.78,5.61l1.29.4s3.72,1.17,8.42,3.07c-.38.94-.69,1.91-.87,2.95-.09.54-.08,1.1-.1,1.65-2.43-.69-5.02-.75-7.56-.1-.38.1-.73.27-1.11.4-.17-4.08-.12-6.99-.11-7.01l.03-1.35Z"/>
  <path class="st0" d="M3.5,44.55c-.15-2.34.4-4.69,1.6-6.79l.26-.46-.22-.47c-.23-.52-.43-1.06-.57-1.61-1.39-5.36,1.89-10.98,7.46-12.79l.41-.14.19-.39c.85-1.79,2.2-3.34,3.9-4.52,1.21-.83,2.53-1.44,3.94-1.81,2.37-.61,4.78-.54,7.01.22.2,2.17.87,4.28,1.97,6.18-1.3,3.02-1.55,6.43-.71,9.68.63,2.38,1.79,4.5,3.44,6.31.67.73,1.41,1.39,2.2,1.97,1.68,1.24,3.57,2.1,5.62,2.55l1.22.55.03.02c1.21.48,2.47.89,3.74,1.19-.45,1.27-1.02,2.5-1.7,3.66-.06.11-.13.22-.2.34-.08.15-.18.3-.27.45-.07.11-.15.23-.22.34-.11.17-.22.33-.35.5l-.02.03-.13.17c-.15.22-.32.43-.47.65-.04.06-.08.1-.13.16-.18.24-.37.46-.53.66l-1.04,1.13-.04.1c-1.38,2.35-3.39,4.17-5.86,5.29-1.93.88-3.99,1.26-6.09,1.15-2.52-.15-4.9-1-6.91-2.47-.42-.31-.82-.66-1.21-1.01l-.41-.39-.55.13c-.22.07-.46.11-.76.17-.07.01-.14.02-.2.04-.24.04-.48.07-.69.1h-.08c-.24.04-.52.05-.79.07h-.13c-.25.02-.49.02-.73.02h-.05c-.27,0-.53-.02-.78-.04h-.09c-.26-.03-.52-.07-.79-.09-.55-.09-1.1-.21-1.63-.36-.83-.22-1.63-.54-2.37-.92-.57-.29-1.12-.63-1.62-1.01-1.62-1.18-2.84-2.69-3.65-4.49-.57-1.28-.92-2.63-1.01-4.03Z"/>
  <path class="st0" d="M1.28,62.78l-1.28-.45.78-1.11s2.27-3.18,5.53-7.07c.78.66,1.61,1.26,2.53,1.74.48.25,1.03.41,1.54.61-1.42,2.1-2.27,4.54-2.43,7.16-.02.39.02.78.04,1.17-3.93-1.1-6.68-2.05-6.71-2.05Z"/>
  <path class="st0" d="M13.9,73.93v-.44s-.31-.3-.31-.3c-1.44-1.35-2.51-3.12-3.1-5.11-.41-1.4-.58-2.85-.5-4.31.14-2.44.97-4.71,2.37-6.6.36.08.73.16,1.12.21.32.05.63.08.95.1h.04c.3.04.61.05.92.05h.08c.27,0,.55,0,.85,0h.15c.31-.02.63-.05.91-.08h.09c.25-.04.51-.08.8-.13.07,0,.15-.02.22-.03.12-.02.24-.05.35-.07.32.27.65.55.99.8,2.33,1.71,5.09,2.69,8,2.87,2.45.13,4.83-.31,7.07-1.32,2.81-1.28,5.14-3.36,6.71-6.03l.89-.99.03-.03c.19-.21.38-.46.59-.73l.13-.18c.18-.22.36-.46.52-.69l.14-.2.02-.03c.12-.18.25-.36.37-.55.09-.12.16-.25.24-.37.09-.15.19-.3.28-.46l.04.03c.41.32.82.67,1.22,1.03l.19.17c.18.16.35.33.53.5.09.09.17.18.27.27.09.09.18.19.27.28l.03.02c.14.15.29.31.43.47.07.08.14.15.2.23.15.17.29.34.43.52.05.05.09.11.14.18.16.18.3.37.43.55l.14.17c.15.22.31.44.47.67l.09.15c.19.27.34.5.47.72l.76,1.33.08.08c1.8,2.03,2.92,4.51,3.23,7.21.23,2.1-.03,4.17-.8,6.16-1.11,2.85-3.18,5.2-5.82,6.63l-.49.26-.04.57c-.16,2.28-.91,4.5-2.18,6.38-.49.72-1.02,1.38-1.62,1.96-1.9,1.89-4.28,3.03-6.86,3.33-1.39.14-2.78.05-4.13-.29-1.48-.38-2.87-1.05-4.13-1.97-.67-.49-1.28-1.05-1.84-1.65l-.34-.4-.52.06c-.56.06-1.14.08-1.71.04-1.94-.12-3.78-.79-5.37-1.95-2.81-2.07-4.5-5.47-4.5-9.1Z"/>
</svg>