<?xml version="1.0" encoding="UTF-8"?>
<svg id="Layer_1" xmlns="http://www.w3.org/2000/svg" version="1.1" viewBox="0 0 20 20">
  <!-- Generator: Adobe Illustrator 29.6.1, SVG Export Plug-In . SVG Version: 2.1.1 Build 9)  -->
  <defs>
    <style>
      .st0 {
        fill: #231f20;
      }
    </style>
  </defs>
  <g>
    <g>
      <path class="st0" d="M12.8,5.1l-.29-.41h0s-.07-.1-.07-.1c-.07-.1-.23-.33-.44-.34-.21-.01-.39.13-.46.18l-.05.04-.12-.16-.26.2.12.16-1.14.88.25.34,1.14-.89.08.12.06.09.06.08-.95.74c-.05.04-.08.1-.07.18.01.08.05.16.11.24l.49.67c.18.24.34.3.49.18l.47-.36c.14-.11.14-.26,0-.46l-.23-.31-.27.21c.08.11.12.17.13.2.02.06,0,.11-.05.16l-.16.13c-.07.05-.15.02-.24-.11l-.21-.29c-.08-.11-.08-.2,0-.26l.74-.58.73.99.2.28.36.49.8,1.09.14.2-.62.48c.04-.12-.08-.24-.15-.35l.19-.15s.23-.22.08-.43l-.38-.51c-.12-.16-.32-.11-.4-.05l-.16.13.26.36.07-.05c.09-.08.13-.09.22.04.06.09.05.17,0,.21l-.32.25c-.11.08-.19.09-.29-.04l-.37-.5c-.13-.19-.05-.19.07-.27l.56-.44-.26-.35-.72.56c-.18.14-.17.32.01.56l.6.83c.09.13.16.18.22.2.1.04.22-.03.3-.1l.03.03c.13.17.17.27.01.39l-.12.09.24.33,1.14-.89.05.07.13.17.04.05-1.14.89.25.34,1.14-.88.13.19.06.08.1.14.25.34.78,1.06.26-.2-.13-.18c.1-.08.3-.23.34-.37.06-.21,0-.34-.13-.51l-2.72-3.71-.28.21,2.7,3.7c.12.16-.06.28-.16.36l-.76-1.04-.05-.08-.42-.57-.13-.17-1.59-2.18-.2-.27-.02-.02c.1-.09.29-.24.34-.37.07-.21,0-.34-.12-.51l-.18-.25-.28.21.16.23c.08.11-.07.32-.16.36l-.78-1.06-.06-.09-.09-.12.03-.03s.26-.16.41.05l.18.25s0,0,0,0l.16.22.27-.21Z"/>
      <path class="st0" d="M15.75,11.55c.15-.11.09-.28.02-.41l-.61-.83c-.17-.24-.37-.15-.42-.12l-.14.11.26.36c.06-.05.04-.03.05-.04.1-.08.15-.04.23.07l.23.31c.05.07.05.13.04.15-.09.15-.18.03-.18.03l-.62-.48c-.19-.14-.33-.19-.43-.12-.11.08-.12.1-.13.18-.01.11.05.26.17.42l.68.94.26-.2-.55-.75s-.11-.13-.07-.17c.03-.02.12.05.12.05l.67.53c.19.17.31.05.31.05l.1-.07Z"/>
    </g>
    <g>
      <path class="st0" d="M3.74,10.98l-.07.1-.03-.02s-.23-.21-.06-.43l4.5-6.15-.27-.21-4.52,6.18c-.08.1-.26.34-.21.55.04.22.22.36.29.41l.05.04-.12.17.25.2.13-.17,1.14.88.26-.35-1.14-.88.07-.1.13-.18,1.03-1.41.16.12-.75,1.03c-.07.1-.11.2-.12.31-.01.11.09.25.15.29l.37.29c.1.08.28.13.4.05.08-.06.19-.17.31-.34l.89-1.22-1.14-.89.14-.19-.25-.2-1.42,1.95-.13.18ZM6.03,10.28l-.57.79c-.05.07-.11.12-.18.15-.07.03-.12.02-.16,0l-.18-.14c-.08-.06-.06-.17.04-.31l.6-.82.45.35Z"/>
      <path class="st0" d="M6.58,7.1l-.37.51c-.2.28-.07.6.08.71l.22.18.28-.38-.21-.17s-.06-.11-.05-.2c.01-.04.03-.07.05-.1.06-.09.18-.23.22-.25.04-.02.09-.01.14.03l.71.55c-.14.05-.36.27-.52.49-.03.03-.06.09-.11.16-.05.07-.08.13-.11.16-.13.18-.26.21-.39.11l-.05-.04-.25.34.3.23c.14.11.3.04.48-.21l.59-.8c.05-.07.11-.12.18-.17.07-.05.13-.07.18-.06l.25-.34-1.03-.8c-.14-.11-.44-.17-.59.04Z"/>
      <path class="st0" d="M6.95,6.59l.26.2.25-.34c-.06.2-.07.32-.03.35l.18.14c.09.07.19.03.31-.12.02-.02.04-.06.07-.1.04-.05.06-.08.08-.1.12-.17.31-.32.42-.24l.17.13s-.05.21-.13.32c-.14.2-.29.03-.29.03l-.26.36.26.2c.12.09.26.02.43-.21l.37-.51c.09-.12.12-.21.11-.29-.01-.06-.06-.12-.13-.18l-.07-.06s-.06-.04-.08-.06c.11-.14.22-.21.32-.23l.32.24.26-.36-1.14-.88h0l-.26-.2-1.4,1.91ZM8.87,5.64c-.11.03-.21.11-.31.24-.09-.07-.07-.05-.1-.05-.07-.01-.14.03-.22.14-.02.02-.04.06-.08.12-.03.05-.06.09-.08.12-.12.16-.28.32-.35.27l-.06-.05s-.05-.11,0-.23l.69-.94.52.4Z"/>
    </g>
    <g>
      <path class="st0" d="M19.24,12.48S11.55,1.81,11.44,1.64c-1.51-2.23-2.91.05-2.91.05L.86,12.29c-1.64,2.46.94,2.45.94,2.45h16.26c2.73,0,1.17-2.26,1.17-2.26ZM16.45,14.2c-.61,0-1.44,0-2.61,0H3.58l-1.37-2.85L8.1,3.2h3.8c1.44,2.01,4.28,5.94,5.9,8.2l-1.35,2.79Z"/>
      <path class="st0" d="M9.66,6.64l-2.24,3.1s-.36.43.17.5c1.49,0,3.72,0,4.76,0,.53-.07.23-.46.23-.46-.95-1.31-1.69-2.35-2.27-3.16-.36-.52-.65.02-.65.02Z"/>
    </g>
  </g>
  <g>
    <path class="st0" d="M8.08,11.92c.06-.03.08-.1.08-.18,0-.1-.04-.16-.11-.19-.06-.02-.14-.03-.24-.03h-.45v.47h.5c.09,0,.16-.02.22-.05Z"/>
    <path class="st0" d="M8.08,12.36s-.12-.03-.2-.04h-.51v.57h.5c.09,0,.16-.01.21-.04.09-.05.13-.14.13-.26,0-.11-.04-.19-.13-.23Z"/>
    <path class="st0" d="M6.55,10.65v3.06h6.91v-3.06h-6.91ZM8.55,12.96c-.04.06-.09.12-.14.17-.07.05-.14.09-.23.11-.09.02-.18.03-.29.03h-.92v-2.11h.99c.25,0,.43.08.53.22.06.09.1.2.1.32s-.03.23-.1.31c-.03.04-.09.08-.16.12.11.04.18.1.24.19.05.09.08.19.08.31s-.03.24-.09.34ZM10.4,13.12c-.15.13-.35.19-.62.19s-.48-.06-.64-.19c-.15-.13-.23-.3-.23-.52h.41c.01.1.04.17.08.21.07.09.19.13.36.13.1,0,.19-.01.25-.03.12-.05.18-.13.18-.25,0-.07-.03-.12-.09-.16-.06-.04-.16-.07-.29-.1l-.22-.05c-.22-.05-.37-.1-.45-.16-.14-.1-.21-.25-.21-.46,0-.19.07-.35.2-.47.13-.13.33-.19.59-.19.22,0,.41.06.56.18.15.12.24.29.24.51h-.41c0-.12-.06-.22-.17-.27-.07-.03-.15-.05-.26-.05-.11,0-.2.02-.27.07-.07.05-.1.11-.1.19,0,.08.03.13.1.17.04.03.13.05.27.09l.36.09c.16.04.28.09.35.15.12.1.18.24.18.43s-.07.35-.21.48ZM12.4,11.52h-.61v1.74h-.43v-1.74h-.61v-.37h1.66v.37ZM13.04,13.25h-.42v-2.11h.42v2.11Z"/>
  </g>
  <g>
    <path class="st0" d="M1.64,15.82c-.4,0-.58.23-.74.63l.08.2h.21l.21.24h-.35v2.41l-.21-.23v-2.17s-.3,0-.3,0l-.2-.24h.53c-.07-.08-.21-.2-.21-.32,0-.43.44-.77.78-.77.41,0,1.11.36,1.26.84-.33-.29-.62-.58-1.06-.58Z"/>
    <path class="st0" d="M2.85,16.89v2.46c-.34-.58-.44-1.07-1.16-1.14l-.26-.43c.38-.32.78-.56,1.23-.73h0v-.16h-1.33l-.2-.24h1.91l.2.24h-.38ZM2.65,17.43c-.29.11-.55.28-.79.48.32.16.61.43.79.77v-1.25Z"/>
    <path class="st0" d="M4.24,15.82c-.4,0-.58.23-.74.63l.08.2h.22l.21.24h-.35v2.41l-.21-.23v-2.17s-.3,0-.3,0l-.21-.24h.53c-.06-.08-.2-.2-.2-.32,0-.43.44-.77.78-.77.41,0,1.12.36,1.26.84-.33-.29-.62-.58-1.05-.58Z"/>
    <path class="st0" d="M4.95,16.89l.03.92c.21,0,.39-.34.51-.5.23.11.37.53.37.79,0,.54-.25.91-.73.91-.82,0-.98-1.28-1.05-1.97l.12.07c.04.56.31,1.49.9,1.49.27,0,.61-.23.61-.59,0-.11-.05-.23-.12-.31-.04.17-.39.48-.56.48-.4,0-.28-1-.28-1.28h-.81l-.2-.24h2.15l.2.24h-1.14Z"/>
    <path class="st0" d="M7.6,18.71c-.21,0-.41.07-.61.07-.47,0-.73-.34-.73-.87,0-.26.06-.39.17-.61l.08.1c-.08.14-.11.27-.11.44,0,.71.51.57.92.57.46,0,.54.25.58.26v-1.73s-.03-.05-.06-.05c-.25,0-.57.39-.61.66.04,0,.07-.02.11-.02.12,0,.17.14.17.27,0,.19-.13.28-.27.28-.22,0-.34-.17-.34-.41,0-.4.45-1.03.83-1.03.14,0,.39.2.39.37v2.32c-.22-.24-.13-.6-.51-.6Z"/>
    <path class="st0" d="M10.09,16.89v2.44l-.2-.27c0-.16.15-1.37-.29-1.37-.28,0-.41.77-.7.77-.26,0-.39-.27-.48-.52l.13-.15c0,.08.11.32.2.32.11,0,.33-.41.37-.48-.05-.66-.26-.42-.6-.55-.08-.03-.37-.37-.42-.42h2.16l.21.24h-.38ZM9.89,16.89h-.93c.23.22.26.28.26.61h0c.05,0,.14-.18.27-.18.17,0,.3.26.4.4v-.84Z"/>
    <path class="st0" d="M10.57,18.38v-.3h1.01v.3h-1.01Z"/>
    <path class="st0" d="M12.07,18.97c0-.25.23-.44.44-.44.14,0,.32.05.41.17.07-.09.12-.12.12-.24,0-.7-.96-1.08-.96-1.55,0-.16.11-.31.25-.31.24,0,.19.26.2.43v.02c.34.38.74.73.74,1.34,0,.47-.4.94-.81.94-.16,0-.38-.13-.38-.35Z"/>
    <path class="st0" d="M15.03,18.08h-.61c-.2.01-.48-.35-.48-.59,0-.35.33-.78.64-.78.36,0,.69.47.69.87v1.26c.12,0,.2.07.2.22,0,.17-.09.24-.23.24-.35,0-.22-1.06-.22-1.22ZM15.04,17.69c0-.17-.17-.73-.34-.73-.16,0-.45.29-.48.46,0,.05-.02.1-.02.15,0,.15.08.17.2.17h.63s0-.03,0-.04Z"/>
    <path class="st0" d="M16.78,18.49c0,.33.22.61.5.67-.12.07-.26.09-.39.09-.56,0-1.13-.37-1.13-1.09,0-.52.55-1.47,1.03-1.47.02,0,.29.08.33.09-.11.04-.19.19-.19.32,0,.19.13.21.27.21.13.09.27.2.42.25-.34.1-.84.47-.84.92ZM16.69,17.1c-.37.19-.67.71-.67,1.18s.4.73.75.8c-.14-.15-.24-.38-.24-.61,0-.39.21-.77.52-.91-.23-.05-.31-.22-.36-.46Z"/>
    <path class="st0" d="M19.03,17.94c0,.07.08.21.08.34,0,.39-.46.91-.79.91-.11,0-.38-.34-.38-.45v-1.57h-.02c-.13,0-.21-.1-.21-.24,0-.13.06-.25.18-.25.4,0,.29.82.28,1.07.07-.13.26-.25.4-.25.21,0,.35.31.39.31,0,0,.07-.16.09-.19.07-.09.17-.1.27-.1h.05c.29,0,.2-.16.26-.19h.03c.01.06.02.11.02.17,0,.35-.24.38-.47.38-.04,0-.17,0-.17.06ZM18.52,17.83c-.12,0-.26.05-.35.14v.8s.04.13.06.13c.3,0,.58-.52.58-.85,0-.15-.16-.23-.28-.23Z"/>
  </g>
</svg>