<?xml version="1.0" encoding="UTF-8"?>
<svg id="Layer_1" xmlns="http://www.w3.org/2000/svg" version="1.1" xmlns:xlink="http://www.w3.org/1999/xlink" viewBox="0 0 20 20">
  <!-- Generator: Adobe Illustrator 29.6.1, SVG Export Plug-In . SVG Version: 2.1.1 Build 9)  -->
  <defs>
    <style>
      .st0, .st1 {
        fill: #fff;
      }

      .st2 {
        fill: #521;
      }

      .st2, .st1, .st3 {
        fill-rule: evenodd;
      }

      .st3 {
        fill: url(#linear-gradient);
      }
    </style>
    <linearGradient id="linear-gradient" x1="2989.72" y1="-5281.5" x2="3006.9" y2="-5281.5" gradientTransform="translate(-2988.46 5291.4)" gradientUnits="userSpaceOnUse">
      <stop offset="0" stop-color="#5b3f1d"/>
      <stop offset=".4" stop-color="#8b4f27"/>
      <stop offset=".7" stop-color="#c35e28"/>
      <stop offset="1" stop-color="#73361c"/>
    </linearGradient>
  </defs>
  <path class="st2" d="M10.45,1.04c5.08,0,9.2,4.12,9.2,9.2,0,5.08-4.12,9.2-9.2,9.2-5.08,0-9.2-4.12-9.2-9.2S5.37,1.04,10.45,1.04Z"/>
  <path class="st1" d="M12.76,1.65C8.01.38,3.13,3.19,1.86,7.94c-1.27,4.75,1.54,9.62,6.29,10.9,4.74,1.27,9.62-1.54,10.89-6.29,1.27-4.74-1.54-9.62-6.29-10.89Z"/>
  <path class="st3" d="M12.68,1.95C8.1.72,3.39,3.44,2.16,8.02c-1.23,4.58,1.49,9.29,6.07,10.52,4.58,1.23,9.29-1.49,10.52-6.07,1.23-4.58-1.49-9.29-6.07-10.52Z"/>
  <polygon class="st1" points="8.8 1.95 8.77 2.34 8.39 2.41 8.75 2.56 8.7 2.95 8.95 2.65 9.31 2.82 9.1 2.48 9.37 2.2 8.99 2.29 8.8 1.95"/>
  <polygon class="st1" points="7.11 2.47 7.16 2.86 6.8 3.01 7.19 3.08 7.22 3.47 7.41 3.13 7.79 3.22 7.52 2.93 7.72 2.6 7.37 2.77 7.11 2.47"/>
  <polygon class="st1" points="5.57 3.33 5.7 3.7 5.38 3.93 5.77 3.92 5.88 4.29 6 3.92 6.39 3.93 6.07 3.7 6.19 3.33 5.88 3.57 5.57 3.33"/>
  <polygon class="st1" points="4.24 4.5 4.44 4.83 4.18 5.12 4.56 5.03 4.75 5.37 4.78 4.98 5.16 4.91 4.8 4.76 4.85 4.37 4.6 4.67 4.24 4.5"/>
  <polygon class="st1" points="3.18 5.92 3.45 6.2 3.25 6.54 3.6 6.37 3.86 6.67 3.81 6.28 4.17 6.13 3.79 6.05 3.75 5.66 3.56 6.01 3.18 5.92"/>
  <polygon class="st1" points="2.44 7.52 2.76 7.75 2.64 8.11 2.95 7.88 3.26 8.11 3.13 7.75 3.45 7.52 3.06 7.53 2.95 7.16 2.83 7.53 2.44 7.52"/>
  <polygon class="st1" points="2.05 9.25 2.41 9.4 2.36 9.79 2.62 9.49 2.97 9.66 2.77 9.32 3.04 9.04 2.66 9.13 2.47 8.78 2.44 9.17 2.05 9.25"/>
  <polygon class="st1" points="2.03 11.02 2.41 11.09 2.45 11.48 2.64 11.14 3.02 11.23 2.75 10.94 2.95 10.61 2.6 10.77 2.34 10.48 2.39 10.86 2.03 11.02"/>
  <polygon class="st1" points="2.37 12.75 2.76 12.74 2.88 13.12 2.99 12.74 3.38 12.75 3.06 12.53 3.19 12.16 2.88 12.39 2.57 12.16 2.69 12.53 2.37 12.75"/>
  <polygon class="st1" points="3.07 14.38 3.45 14.29 3.64 14.63 3.67 14.24 4.06 14.17 3.7 14.01 3.75 13.63 3.49 13.92 3.14 13.76 3.34 14.09 3.07 14.38"/>
  <polygon class="st1" points="4.09 15.82 4.45 15.65 4.7 15.95 4.65 15.56 5.01 15.41 4.63 15.34 4.6 14.95 4.41 15.29 4.03 15.2 4.3 15.48 4.09 15.82"/>
  <polygon class="st1" points="5.39 17.02 5.7 16.78 6.01 17.02 5.89 16.65 6.21 16.43 5.82 16.43 5.7 16.06 5.59 16.43 5.2 16.43 5.52 16.65 5.39 17.02"/>
  <polygon class="st1" points="6.91 17.92 7.17 17.63 7.52 17.79 7.32 17.46 7.58 17.18 7.21 17.26 7.02 16.92 6.98 17.31 6.6 17.38 6.96 17.54 6.91 17.92"/>
  <polygon class="st1" points="8.59 18.49 8.77 18.15 9.15 18.24 8.89 17.95 9.09 17.62 8.74 17.79 8.48 17.49 8.53 17.88 8.17 18.03 8.55 18.1 8.59 18.49"/>
  <polygon class="st1" points="13.79 18.01 13.74 17.63 14.1 17.47 13.72 17.4 13.69 17.01 13.5 17.35 13.12 17.27 13.38 17.55 13.18 17.88 13.54 17.72 13.79 18.01"/>
  <polygon class="st1" points="15.34 17.15 15.21 16.78 15.53 16.56 15.14 16.57 15.02 16.19 14.91 16.57 14.52 16.56 14.84 16.78 14.71 17.15 15.02 16.91 15.34 17.15"/>
  <polygon class="st1" points="16.66 15.98 16.46 15.65 16.73 15.36 16.35 15.45 16.16 15.11 16.13 15.5 15.74 15.57 16.1 15.73 16.05 16.11 16.31 15.82 16.66 15.98"/>
  <polygon class="st1" points="17.72 14.57 17.45 14.28 17.66 13.95 17.3 14.11 17.05 13.82 17.1 14.21 16.74 14.36 17.12 14.43 17.15 14.82 17.34 14.48 17.72 14.57"/>
  <polygon class="st1" points="18.46 12.96 18.14 12.74 18.27 12.37 17.96 12.61 17.65 12.37 17.78 12.74 17.45 12.96 17.85 12.95 17.96 13.33 18.07 12.95 18.46 12.96"/>
  <polygon class="st1" points="18.85 11.24 18.49 11.09 18.54 10.7 18.29 10.99 17.93 10.83 18.13 11.16 17.87 11.45 18.25 11.36 18.44 11.7 18.47 11.31 18.85 11.24"/>
  <polygon class="st1" points="18.88 9.47 18.49 9.39 18.46 9.01 18.27 9.35 17.89 9.26 18.16 9.54 17.96 9.88 18.31 9.71 18.56 10.01 18.52 9.62 18.88 9.47"/>
  <polygon class="st1" points="18.53 7.73 18.14 7.74 18.03 7.37 17.91 7.74 17.52 7.73 17.84 7.96 17.72 8.33 18.03 8.09 18.34 8.33 18.21 7.96 18.53 7.73"/>
  <polygon class="st1" points="17.83 6.11 17.45 6.2 17.26 5.86 17.23 6.24 16.85 6.32 17.21 6.47 17.16 6.86 17.41 6.56 17.77 6.73 17.57 6.39 17.83 6.11"/>
  <polygon class="st1" points="16.81 4.67 16.46 4.83 16.2 4.54 16.25 4.92 15.89 5.07 16.28 5.15 16.31 5.54 16.5 5.2 16.88 5.28 16.61 5 16.81 4.67"/>
  <polygon class="st1" points="15.51 3.47 15.2 3.7 14.89 3.47 15.02 3.83 14.7 4.06 15.09 4.05 15.2 4.42 15.32 4.05 15.71 4.06 15.39 3.83 15.51 3.47"/>
  <polygon class="st1" points="13.99 2.56 13.74 2.86 13.39 2.69 13.59 3.02 13.32 3.31 13.7 3.22 13.89 3.56 13.92 3.17 14.31 3.1 13.95 2.95 13.99 2.56"/>
  <polygon class="st1" points="12.32 1.99 12.13 2.33 11.75 2.25 12.02 2.53 11.82 2.86 12.17 2.7 12.42 2.99 12.38 2.61 12.74 2.46 12.35 2.38 12.32 1.99"/>
  <path class="st0" d="M7.71,8.8s0,.01,0,.02c0,0,0,0,.01,0h.59s.01,0,.02,0c0,0,0-.01,0-.02v-2.3s0-.01,0-.02c0,0-.01,0-.02,0h-.7s-.01,0-.02,0c0,0,0,.01,0,.02v.65s0,.01,0,.02c0,0,.01,0,.03,0,.01,0,.03,0,.06,0,0,0,0,0,.01,0,0,0,0,0,0,.01v1.61h0ZM8.46,8.12c0,.1.02.2.05.28.03.09.08.16.13.22.06.06.13.11.21.15.08.03.17.05.27.05s.19-.02.27-.05c.08-.03.15-.08.21-.15.06-.06.1-.14.14-.22.03-.09.05-.18.05-.28v-.96c0-.1-.02-.19-.05-.28-.03-.08-.08-.16-.14-.22-.06-.06-.13-.11-.21-.14-.08-.03-.17-.05-.27-.05-.1,0-.19.02-.27.05-.08.03-.15.08-.21.14-.06.06-.1.13-.13.22-.03.08-.05.18-.05.28v.96h0ZM9.07,7.17s0-.03.01-.04c0-.01.02-.02.04-.02.02,0,.03,0,.04.02,0,.01.01.03.01.05v.93s0,.04-.02.05c0,.01-.02.02-.04.02-.02,0-.03,0-.04-.02,0-.01-.01-.03-.01-.05v-.93h0ZM9.87,8.12c0,.1.02.2.05.28.03.09.08.16.13.22.06.06.13.11.21.15.08.03.17.05.27.05s.19-.02.27-.05c.08-.03.15-.08.21-.15.06-.06.1-.14.14-.22.03-.09.05-.18.05-.28v-.96c0-.1-.02-.19-.05-.28-.03-.08-.08-.16-.14-.22-.06-.06-.13-.11-.21-.14-.08-.03-.17-.05-.27-.05-.1,0-.19.02-.27.05-.08.03-.15.08-.21.14-.06.06-.1.13-.13.22-.03.08-.05.18-.05.28v.96h0ZM10.48,7.17s0-.03.01-.04c0-.01.02-.02.04-.02s.03,0,.04.02c0,.01.01.03.01.05v.93s0,.04-.01.05c0,.01-.02.02-.04.02-.02,0-.03,0-.04-.02,0-.01-.01-.03-.01-.05v-.93h0ZM11.28,7.46c0,.06.01.12.03.17.02.05.05.1.09.13.04.04.09.07.14.09.05.02.11.03.17.03s.12-.01.17-.03c.05-.02.1-.05.14-.09.04-.04.07-.08.1-.13.02-.05.03-.11.04-.17v-.57c0-.05-.01-.11-.03-.15-.02-.05-.05-.09-.09-.13-.04-.04-.08-.07-.14-.09-.06-.02-.12-.03-.18-.03-.06,0-.12.01-.18.03-.05.02-.1.05-.14.09-.04.04-.07.08-.09.13-.02.05-.03.1-.03.16v.57h0ZM11.67,6.92s0-.03.01-.04c.01-.01.02-.02.04-.02.02,0,.03,0,.04.02,0,.01.01.02.01.04v.52s0,.03-.01.04c0,.01-.02.02-.04.02-.02,0-.03,0-.04-.02,0-.01-.01-.03-.01-.04v-.51h0ZM12.54,8.4c0,.06.01.12.04.17.02.05.05.09.09.13.04.04.09.07.14.09.05.02.11.03.17.03s.12-.01.17-.03c.05-.02.1-.05.14-.09.04-.04.07-.08.1-.13.02-.05.04-.11.04-.17v-.57c0-.05,0-.11-.03-.15-.02-.05-.05-.09-.09-.13-.04-.04-.09-.07-.14-.09-.06-.02-.12-.03-.18-.04-.06,0-.12.01-.18.04-.05.02-.1.05-.14.09-.04.04-.07.08-.09.13-.02.05-.03.1-.03.16v.57h0ZM12.93,7.85s0-.03.01-.04c0-.01.02-.02.04-.02.02,0,.03,0,.04.02,0,.01.01.02.01.04v.52s0,.03-.01.04c0,.01-.02.02-.04.02-.02,0-.03,0-.04-.02,0-.01-.01-.03-.01-.04v-.51h0ZM12.05,8.79l.31-2.32s.01-.03.03-.03h.25s.01,0,.02,0c0,0,0,.01,0,.02l-.32,2.32s0,.02-.01.02c0,0-.01,0-.02,0h-.24s-.01,0-.02,0c0,0,0-.01,0-.02Z"/>
  <g>
    <path class="st0" d="M13.52,14.45c-1.28,0-2.43-.68-3.06-1.78-.63,1.09-1.78,1.77-3.06,1.77-1.96,0-3.55-1.62-3.55-3.6,0-.77.24-1.51.69-2.13-.02-.14-.03-.28-.03-.42,0-1.73,1.43-3.13,3.2-3.17.5-1.04,1.56-1.69,2.74-1.69s2.25.66,2.74,1.69c1.78.02,3.23,1.43,3.23,3.17,0,.14,0,.28-.03.42.45.62.69,1.35.69,2.13,0,1.98-1.59,3.6-3.56,3.6ZM10.45,11.4l.24.6c.47,1.18,1.58,1.94,2.83,1.94,1.68,0,3.05-1.39,3.05-3.09,0-.7-.23-1.36-.65-1.91l-.07-.09.02-.11c.02-.15.04-.3.04-.44,0-1.47-1.24-2.66-2.75-2.66-.04,0-.08,0-.12,0h-.18s-.07-.16-.07-.16c-.38-.93-1.31-1.54-2.35-1.54s-1.96.6-2.35,1.54l-.07.16h-.2s-.05,0-.07,0c-1.52,0-2.75,1.19-2.76,2.66,0,.14.01.29.04.44l.02.11-.07.09c-.42.55-.65,1.21-.65,1.91,0,1.71,1.37,3.09,3.05,3.09,1.25,0,2.36-.76,2.83-1.94l.24-.6Z"/>
    <path class="st0" d="M6.25,11.76s1.21,1.9,3.31,2.66c.96.34,2.74.34,5.08-2.66,0,0-1.52-.57-2.95.32.04-1.16-.82-2.67-1.24-2.92,0,0-1.07.84-1.25,2.93-.52-.59-2.45-.58-2.94-.33Z"/>
  </g>
  <g>
    <path class="st0" d="M7.41,15.94l.27.09c-.04.15-.11.27-.21.34-.1.07-.22.11-.37.11-.19,0-.34-.06-.46-.19-.12-.13-.18-.3-.18-.52,0-.23.06-.41.18-.54.12-.13.28-.19.47-.19.17,0,.31.05.42.15.06.06.11.15.14.26l-.28.07c-.02-.07-.05-.13-.1-.17-.05-.04-.12-.06-.19-.06-.1,0-.19.04-.25.11-.07.07-.1.19-.1.36,0,.18.03.3.1.38.06.08.15.11.25.11.07,0,.14-.02.19-.07.05-.05.09-.12.12-.23Z"/>
    <path class="st0" d="M7.87,15.77c0-.14.02-.26.06-.36.03-.07.07-.14.13-.19.05-.06.11-.1.18-.13.09-.04.19-.06.3-.06.21,0,.37.06.49.19.12.13.19.31.19.53s-.06.4-.18.53c-.12.13-.29.19-.49.19s-.37-.06-.5-.19c-.12-.13-.18-.3-.18-.52ZM8.16,15.76c0,.16.04.28.11.36.07.08.17.12.28.12s.2-.04.28-.12c.07-.08.11-.2.11-.36s-.04-.28-.11-.36c-.07-.08-.16-.12-.28-.12s-.21.04-.28.12c-.07.08-.11.2-.11.36Z"/>
    <path class="st0" d="M9.77,16.46v-1.16s-.41,0-.41,0v-.24s1.11,0,1.11,0v.24s-.41,0-.41,0v1.16s-.28,0-.28,0Z"/>
    <path class="st0" d="M10.96,16.46v-1.16s-.41,0-.41,0v-.24s1.11,0,1.11,0v.24s-.41,0-.41,0v1.16s-.28,0-.28,0Z"/>
    <path class="st0" d="M11.74,15.77c0-.14.02-.26.06-.36.03-.07.07-.14.13-.19.06-.06.12-.1.18-.13.09-.04.19-.06.3-.06.21,0,.37.06.5.19.12.13.18.31.18.53s-.06.4-.18.53c-.12.13-.29.19-.49.19s-.37-.06-.5-.19c-.12-.13-.18-.3-.18-.52ZM12.04,15.76c0,.16.04.28.11.36.07.08.17.12.28.12s.2-.04.28-.12c.07-.08.11-.2.11-.36s-.04-.28-.11-.36c-.07-.08-.16-.12-.28-.12s-.21.04-.28.12c-.07.08-.11.2-.11.36Z"/>
    <path class="st0" d="M13.32,16.46v-1.4s.27,0,.27,0l.57.93v-.93s.26,0,.26,0v1.4s-.28,0-.28,0l-.56-.91v.91s-.26,0-.26,0Z"/>
  </g>
</svg>