<?xml version="1.0" encoding="UTF-8"?>
<svg id="Layer_1" xmlns="http://www.w3.org/2000/svg" version="1.1" viewBox="0 0 20 20">
  <!-- Generator: Adobe Illustrator 29.6.1, SVG Export Plug-In . SVG Version: 2.1.1 Build 9)  -->
  <defs>
    <style>
      .st0 {
        fill: #231f20;
      }

      .st1 {
        fill: #fff;
      }

      .st2 {
        fill: none;
        stroke: #231f20;
        stroke-miterlimit: 10;
        stroke-width: .34px;
      }

      .st3 {
        fill: #03a550;
      }
    </style>
  </defs>
  <ellipse class="st2" cx="10" cy="10" rx="8.9" ry="9.14"/>
  <path class="st3" d="M17.1,10c0,4.02-3.18,7.29-7.1,7.29-3.92,0-7.1-3.26-7.1-7.29,0-4.02,3.18-7.29,7.1-7.29,3.92,0,7.1,3.26,7.1,7.29Z"/>
  <polygon class="st1" points="3.22 10 5.19 7.91 5.19 5.07 8.08 5.07 10.06 3.09 12.06 5.1 14.92 5.1 14.92 7.96 16.96 10.01 14.96 12.01 14.96 14.85 12.17 14.85 10.06 16.97 8.01 14.92 5.17 14.92 5.17 12.04 3.22 10"/>
  <g>
    <path class="st0" d="M7.72,11.76h.45s0-.23,0-.23c0-.02,0-.03,0-.04,0-.01,0-.02,0-.03,0,0,0-.01-.01-.02,0,0-.01,0-.02-.01-.02,0-.04-.01-.06-.01h-.03v-.02s.41,0,.41,0v.02h-.03s-.02,0-.03,0c-.01,0-.02,0-.03,0,0,0-.02,0-.02.01,0,0-.01.01-.01.02,0,.01,0,.04,0,.08v.51s0,.03,0,.05c0,.01,0,.02,0,.03,0,0,0,.01.01.02,0,0,.01,0,.02.01.02,0,.04.01.07.01h.03v.02s-.41,0-.41,0v-.02h.03s.07,0,.09-.03c.01-.01.02-.04.02-.09v-.24s-.45,0-.45,0v.24s0,.03,0,.05c0,.01,0,.02,0,.03,0,0,0,.01.01.02,0,0,.01,0,.02.01.02,0,.04.01.06.01h.04s0,.02,0,.02h-.41s0-.02,0-.02h.03s.07,0,.09-.03c.01-.01.02-.04.02-.09v-.51s0-.03,0-.04c0-.01,0-.02,0-.03,0,0,0-.01-.01-.02,0,0-.01,0-.02-.01-.02,0-.04-.01-.06-.01h-.03v-.02s.41,0,.41,0v.02h-.04s-.04,0-.06,0c-.02,0-.03.02-.04.03,0,.01,0,.04,0,.08v.23Z"/>
    <path class="st0" d="M9.26,11.92h-.37s-.06.13-.06.13c-.02.03-.02.05-.02.07,0,.01,0,.02.02.03.01,0,.04.01.09.02v.02s-.3,0-.3,0v-.02s.07-.01.08-.02c.02-.02.05-.06.08-.11l.34-.65h.02s.33.66.33.66c.03.05.05.09.07.1.02.01.05.02.09.03v.02s-.38,0-.38,0v-.02s.04,0,.05,0c.01,0,.02,0,.03-.01,0,0,.01,0,.02-.01,0,0,0-.01,0-.02,0-.02,0-.04-.03-.08l-.06-.11ZM9.24,11.88l-.16-.32-.17.32h.33Z"/>
    <path class="st0" d="M10.63,11.97l-.08.21h-.74s0-.02,0-.02h.04s.07-.01.09-.03c0-.01.01-.04.01-.09v-.51s0-.08-.02-.09c-.02-.02-.05-.03-.08-.03h-.04v-.02s.43,0,.43,0v.02s-.05,0-.06,0c-.02,0-.03,0-.04,0-.01,0-.02,0-.03.01,0,0-.01.01-.02.02,0,.01-.01.04-.01.09v.5s0,.05,0,.06c0,.01.01.02.03.03.01,0,.05,0,.11,0h.07s.07,0,.09,0c.02,0,.04,0,.06,0,.02,0,.03-.01.04-.02.01,0,.02-.02.04-.03.01-.01.03-.03.04-.04.01-.02.02-.04.04-.06h.02Z"/>
    <path class="st0" d="M11.45,11.92h-.37s-.06.13-.06.13c-.02.03-.02.05-.02.07,0,.01,0,.02.02.03.01,0,.04.01.09.02v.02s-.3,0-.3,0v-.02s.07-.01.08-.02c.02-.02.05-.06.08-.11l.34-.65h.03s.33.66.33.66c.03.05.05.09.07.1.02.01.05.02.09.03v.02s-.38,0-.38,0v-.02s.03,0,.05,0c.01,0,.02,0,.03-.01,0,0,.01,0,.02-.01,0,0,0-.01,0-.02,0-.02,0-.04-.03-.08l-.06-.11ZM11.43,11.88l-.16-.32-.17.32h.33Z"/>
    <path class="st0" d="M12.82,11.97l-.08.21h-.74s0-.02,0-.02h.04s.07-.01.09-.03c.01-.01.01-.04.01-.09v-.51s0-.08-.02-.09c-.02-.02-.04-.03-.08-.03h-.04v-.02s.43,0,.43,0v.02s-.05,0-.06,0c-.02,0-.03,0-.04,0-.01,0-.02,0-.03.01,0,0-.01.01-.02.02,0,.01-.01.04-.01.09v.5s0,.05,0,.06c0,.01.01.02.03.03.01,0,.05,0,.11,0h.07s.07,0,.09,0c.02,0,.05,0,.06,0,.02,0,.03-.01.04-.02.01,0,.02-.02.04-.03.01-.01.02-.03.04-.04.01-.02.02-.04.04-.06h.02Z"/>
  </g>
  <g>
    <path d="M6.52,11.03c1.43-.43,1.42-1.39,1.42-1.62,0-.23-.1-1.45-.13-1.76-.03-.32-.08-.92-.06-.95.02-.03.27-.33.17-.46-.22-.31-.4-.67-.4-.67,0,0-.11.15-.18.28-.06.13-.09.33-.06.45.03.12.09.83.11,1.09.03.26.17,1.95.18,2.31.01.37-.55.79-1.52.71-.97-.09-.7-1.05-.64-1.19.06-.15.21-.56.08-.53-.13.03-.52.86-.46,1.46.06.6.63,1.09,1.48.88Z"/>
    <path d="M9.51,9.17c.02.1.08.26.11.25.02-.02.09-.72-.09-1.18-.18-.47-.63-1.15-1.36-1.39,0,0-.16-.06-.14.29.02.35.07.74.64.96,0,0,.09.02.12-.02.03-.04.09-.02.09-.02,0,0,.5.37.63,1.12Z"/>
    <path d="M10.63,6.45c-.24.4-.05,1.13-.52,2.35-.58,1.47-2.69,2.17-2.69,2.17,0,0,1.33-.06,1.98-.47.65-.41,1-1.25,1.09-1.83.09-.58.15-1.03.17-1.03s.05.16.07.37c.03.21-.11,1.17.15,1.9.26.73,1.09.69,1.4.64.31-.04,1.52-.57,1.93-.64.41-.07.55.09.56.08,0-.01.29-.6.29-.64s-.33-.05-.59-.08c-.25-.03-.85-.29-1.56-.61-.71-.32-1.43.67-1.49,1.07-.06-.04-.3-.37-.34-.72-.05-.35-.13-2.04-.14-2.14,0-.1-.13-.73-.31-.42ZM11.74,9.55c.18-.2.6-.32.94-.27.34.05.66.26.74.28.07.02.06.05-.12.12-.18.07-.68.19-.68.19-.37.12-.71.09-.71.09-.3-.07-.35-.21-.17-.4Z"/>
  </g>
</svg>