<?xml version="1.0" encoding="UTF-8"?>
<svg id="Layer_1" xmlns="http://www.w3.org/2000/svg" version="1.1" viewBox="0 0 400 400">
  <!-- Generator: Adobe Illustrator 29.8.1, SVG Export Plug-In . SVG Version: 2.1.1 Build 2)  -->
  <defs>
    <style>
      .st0 {
        fill: none;
      }

      .st1 {
        fill: #03733c;
      }
    </style>
  </defs>
  <g>
    <path class="st1" d="M327.12,313.93v7.94c-1.49,2.69-2.77,3.97-5.46,5.46h-60.07c-3.58-1.14-2.67-7.45.25-7.45h33.01c-1.03-17-5.97-33.31-15.18-47.61-30.03-46.59-93.61-57.53-137.66-23.57-22.06,17.01-35.37,43.3-36.79,71.17h72.97c1.52-11.34,10.65-17.87,21.62-18.88,1.31-.12,2.63,1.04,3.87-.04l40.07-35.4c9.33-6.09,20.02,3.12,15.14,13.15l-36.02,41.17h24.08c.14,0,1.87,1.75,1.97,1.99,1.08,2.51-.22,3.72-1.73,5.45H78.41c-5.39-2.7-5.69-6.01-5.48-11.68,1.7-45.73,33.24-89.26,74.3-107.86,80.36-36.42,172.5,17.91,179.42,105.36l.46.79ZM196.06,204.24c-21.4.3-43.09,7.19-61.02,18.65-2.22,1.42-16.16,11.3-15.89,12.79l12.13,12.21c17.64-15.84,40.82-26.01,64.78-26.29v-17.37ZM204,221.61c23.96.28,47.15,10.42,64.78,26.29l12.13-12.21c.14-.82-3.82-3.91-4.69-4.63-19.82-16.6-46.3-26.38-72.22-26.81v17.37ZM97.77,319.89c.9-24.84,11.03-48.99,28.29-66.76l-12.22-12.12c-1.52-.27-10.35,11.57-11.71,13.5-13.48,19.22-20.91,41.82-21.73,65.38h17.37ZM319.67,319.89c-.86-24.13-8.77-47.68-22.92-67.17-1.2-1.66-9.24-11.94-10.52-11.71l-12.22,12.12c17.26,17.77,27.38,41.91,28.29,66.76h17.37ZM218.91,311.94c.64.44,2.24-1.47,2.73-1.98,10.42-10.86,19.7-23.45,30.25-34.28,2.08-2.93-1.29-5.93-4.17-3.67l-36.25,32.24c2.92,2.09,5.94,4.28,7.45,7.69ZM214.43,319.89c-4.22-14.68-24.57-14.68-28.79,0h28.79Z"/>
    <path class="st1" d="M327.12,81.14v42.69c-2.58,7.45-11.75,10.82-17.88,5.22-.97-.89-3.47-4.88-3.47-5.96v-13.15c-10.16,8.47-18.94,18.65-28.54,27.79-3.19,2.95-8.16-2.01-5.21-5.21l33.23-32.78c2.76-1,6.85.31,7.75,3.22,1.37,4.47-1.15,16.16.77,19.58,1.74,3.09,5.46,1.75,5.93-1.41-.87-11.85,1.06-25.1,0-36.78-.26-2.81-.86-3.46-3.72-3.72-9.01-.82-27.27-.81-36.28,0-2.98.27-5.08,2.22-3.24,5.15,2.11,3.35,28.31-4.4,23.99,9.14-21.69,21.79-43.05,44.13-65.53,65.02-3.95,1.58-6.49.38-9.56-2.1-13.22-10.71-25.05-27.02-38.26-38.18-5.09-3.78-9.53-2.6-14.12,1.19-27.66,27.26-54.64,55.24-82.38,82.42-2.16,2.12-10.36,8.36-10.18,11.12s3.14,3.59,5.24,2.29c30.45-30.41,60.93-61.02,91.91-90.75,5.23-1.99,7.69.67,11.33,3.85,12.15,10.64,23.67,26.22,35.97,36,3.96,3.15,7.95,3.67,12.38.95l23.99-23.17c3.29-1.43,6.74,2.43,4.11,6.1-2.47,3.44-20.72,21.37-24.14,23.51-7.45,4.66-15.96,3.41-22.3-2.43l-38.4-37.94-88.17,88.07c-9.67,10.37-24.87-.81-17.38-12.91,32.04-31.97,64-64.18,96.65-95.45,5.81-3.58,13.65-3.6,19.18.48l40.79,40.11,58.83-58.56h-12.66c-1.89,0-5.39-2.25-6.71-3.71-5.64-6.23-2.44-15.3,5.44-17.41,12.94.83,29.39-1.89,41.93-.18,4.3.59,7.21,4.16,8.73,7.9Z"/>
  </g>
  <rect class="st0" x="72.67" y="72.67" width="254.66" height="254.66"/>
</svg>