<?xml version="1.0" encoding="UTF-8"?>
<svg id="Layer_1" xmlns="http://www.w3.org/2000/svg" version="1.1" viewBox="0 0 400 400">
  <!-- Generator: Adobe Illustrator 29.8.1, SVG Export Plug-In . SVG Version: 2.1.1 Build 2)  -->
  <defs>
    <style>
      .st0 {
        fill: none;
      }

      .st1 {
        fill: #03733c;
      }
    </style>
  </defs>
  <g>
    <path class="st1" d="M220.71,242.82l78.66-14.49c8.42-.74,16.29.85,19.31,9.66,4.06,11.87-6.13,18.17-15.4,22.4-22.5,10.27-48.83,19.98-72.13,28.76-9.31,3.51-19.92,7.81-29.92,8.56-21.96,1.64-45.24-12.54-65.91-.7,4.23,5.04-2.24,9.86-6.4,11.91-2.83,1.4-14.03,5.26-16.84,5.25-3.31,0-6.02-2.56-7.36-5.35-6.79-21.26-16.6-42.6-22.91-63.89-1-3.38-2.44-6.87-.3-10.17,1.61-2.48,8.98-5.32,11.92-6.38,7.32-2.64,17.13-5.57,19.6,4.59,12.88-2.83,24.58-10.02,37.19-13.49,16.99-4.67,34.93-.04,51.73,3.84,11.08,2.56,19.43,6.26,18.75,19.49ZM132.5,289.27c9.69-3.26,18.5-5.34,28.87-4.71,16.15.97,31.2,8.37,47.61,4.48,4.95-1.18,10.31-3.68,15.13-5.51,28.68-10.92,57.32-22.73,85.54-34.58,5.84-6.13.73-15.05-7.47-13.57l-84.86,16.02c-5.22,4.22-8.67,6.02-15.6,5.5-10.66-.79-22.8-4.94-33.56-6.32-3.99-2.05-2.26-7.39,2.09-7.29,10.35,1.24,21.77,5.13,31.99,6.06,12.25,1.12,15.01-14.03,4.24-17.37-7.81-2.42-20.39-3.94-28.84-5.41-5.21-.91-13.22-3.19-18.12-2l-43.88,15.48,16.88,49.24ZM104.81,232.96c-2.12.71-16.61,5.17-16.78,6.32l24.11,67.38,16.62-5.93-23.95-67.77Z"/>
    <path class="st1" d="M188.29,193.13l-8.07-2.8c-5.12,3.54-9.8,13.58-17.09,10.83-2.04-.77-12.7-11.5-13.17-13.57-.59-2.61-.04-4.67,1.53-6.72,2.09-2.72,7.74-6.65,9.19-9.12,1.06-1.8-2.34-5.97-2.61-8.23l-.53-.4c-6.24-1.1-18.75,3.31-19.89-5.92-.37-3-.37-12.47.12-15.38,1.43-8.51,14.54-4.6,20.48-5.56l2.81-8.05c-3.65-5.4-15.42-10.75-9.79-18.4,1.32-1.8,10.41-10.69,12.1-11.35,7.12-2.77,11.79,8.11,17.13,11.04l7.77-3.51c1.09-5.8-3.13-18.85,5.45-19.89,2.83-.34,13.75-.41,16.33.12,3.15.64,4.73,3.75,5.03,6.7,1.15,11.55-.87,24.87.02,36.61-.5,7.65-7.14,3.06-11.57,2.62-24.88-2.45-26.04,35.06-2.26,35.62,5.13.12,13.11-5.77,13.83,2.08,1.12,12.12-.78,26.07-.13,38.38-.54,2.72-2.58,4.92-5.4,5.4s-12.34.49-15.38.12c-9.11-1.09-4.89-14.47-5.9-20.61ZM207.11,93.61h-11.26v16.66c0,2.38-6.22,3.48-7.97,4.23-2.58,1.1-6.58,3.87-9.12,3.49-2.84-.42-9.71-9.47-12.47-11.51-.55-.44-.77-.05-1.18.23-2.35,1.61-4.84,5.46-7.25,7.3,0,.81,9.95,9.89,11.25,11.73,2.12,3-1.28,6.53-2.57,9.63-1.01,2.41-1.84,8.91-5.17,8.91h-16.19v11.26h16.66c2.62,0,3.77,6.68,4.57,8.57.76,1.79,3.67,6.58,3.56,7.97-.25,2.85-9.86,10.27-11.91,13.03-.44.55-.05.77.23,1.18,1.53,2.23,5.64,5.38,7.71,7.22.95-.17,9.33-9.82,11.33-11.23,3-2.12,6.53,1.28,9.63,2.57,2.41,1.01,8.91,1.84,8.91,5.17v16.19h11.26v-31.91c-19.55,4.72-36.83-15.04-29.03-33.95,2.74-6.64,11.83-15.79,19.41-15.79h9.62v-30.97Z"/>
    <path class="st1" d="M256.38,102.52c23.62-4.57,36.15,24.49,22.5,41.99,1.94,2.73,4.39,5.11,6.03,8.07,11.61,21.06-3.78,49.46-28.98,44.73-4.52,19.96-31.03,18.96-34.69-1.24.27-28.99-2.13-59.77-.54-88.65.43-7.85,2.82-15.47,10.19-19.37,11.39-6.02,24.32,2.29,25.49,14.46ZM246.19,149.11c1.87-2.29,7.33-.94,9.97-1.06,21.64-.96,28.84-30.29,9.77-37.49-10.56-3.99-9.39,2.29-13.4,8.53-2.11,3.28-8.1,9.94-12.37,7.39-4.78-2.86,5.06-10.19,6.74-13.03,2.64-4.46,3.24-9.08.9-13.85-4.65-9.44-17.56-6.14-18.98,3.74-.33,2.3.16,4.65-.59,6.92,2.38,26.73-1.64,55.63.45,82.13,1.49,18.89,23.37,12.1,20.36-3-.28-1.39-1.12-3.5-1.84-4.73-1.54-2.66-6.69-6.05-6.22-9.06.37-2.41,2-2.95,4.26-2.6,4.51.69,8.72,6.94,10.22,10.92,1.58,4.19-.13,5.89,5.45,6.29s11.56-2.87,15.17-7.23c8.03-9.7,6.24-24.49-2.81-32.86-.77-.38-5.34,2.6-6.71,3.16-4.64,1.88-14.01,3.54-18.62,1.56-2.12-.91-3.32-3.78-1.74-5.73Z"/>
  </g>
  <rect class="st0" x="72.67" y="72.67" width="254.66" height="254.66"/>
</svg>