<?xml version="1.0" encoding="UTF-8"?>
<svg id="Layer_1" xmlns="http://www.w3.org/2000/svg" version="1.1" viewBox="0 0 400 400">
  <!-- Generator: Adobe Illustrator 29.8.1, SVG Export Plug-In . SVG Version: 2.1.1 Build 2)  -->
  <defs>
    <style>
      .st0 {
        fill: none;
      }

      .st1 {
        fill: #03733c;
      }
    </style>
  </defs>
  <g>
    <g>
      <path class="st1" d="M197.28,321.74c-21.63-3.92-42.27-11.88-63.57-17.19v6.9c0,2.72-4.71,6.17-7.43,6.44-11.75,1.33-25.81-1-37.76,0-4.18-.46-7.23-4.25-7.43-8.36,1.26-22.1-1.66-46.05,0-67.95.33-4.45,2.72-8.29,7.43-8.83,11.94-1.26,26.08.93,38.22,0,2.46-.07,6.97,4.25,6.97,6.44v7.43c14.27-3.72,27.34-6.97,42.2-4.18,22.69,4.31,46.85,14.66,69.41,20.5l4.38,3.05,50.7-12.21c19.31-3.12,25.81,16.59,9.95,26.68-27.47,11.28-54.21,24.88-81.95,35.7-6.3,2.46-13.74,4.98-20.57,5.51h-10.55v.07ZM126.02,240.45h-37.29v69.08l.73.73h36.56v-69.81ZM171.14,274.76c-2.79-2.52-.33-7.23,3.38-6.57l63.11,13.4c10.35-1.79,10.68-9.62.6-13.07-17.58-6.1-39.15-12.21-57.27-16.85-4.18-1.06-8.83-2.39-13.14-2.65-11.81-.8-22.76,3.05-34.17,5.31v41.94l57.33,16.59c10.82,2.12,20.44,1.33,30.72-2.32,27.27-9.56,54.28-25.02,81.49-35.17,10.88-4.05,11.94-16.26-2.39-13.87l-47.58,11.48c.53,10.42-7.83,17.12-17.85,16.06-10.62-1.06-25.35-5.37-36.23-7.76-7.96-1.73-18.45-3.25-25.95-5.64-.66-.2-1.66-.53-2.12-1l.07.13Z"/>
      <path class="st1" d="M208.76,76.95l5.97,2.92,5.97-2.92h3.85l5.97,2.92c1.59,0,4.25-2.32,5.97-2.92h4.31c15.73,7.23,2.46,21.7-.4,32.65.2.66,9.95,6.37,11.55,7.56,29,21.23,43.26,59.72,18.98,90.51-26.14,33.11-81.62,29.2-101.92-8.03-18.05-33.18.93-67.15,29.46-85.93,2.12-1.39,4.78-2.32,6.44-4.18.4-1.46-6.97-15.73-7.76-18.91-1.46-6.17,1.73-12.01,7.83-13.8h3.85l-.07.13ZM232.59,108.87c.33-1.06.4-2.19.8-3.25,1.79-4.51,6.37-12.41,7.3-16.59.4-1.79-.13-4.71-2.39-4.38-1.86.27-3.45,2.72-7.3,2.85-4.71.13-6.1-2.72-8.16-2.92-1.26-.13-2.99,1.79-4.38,2.32-2.19.8-4.51.86-6.77.27-3.19-.86-7.17-6.04-7.03,1.79l8.03,18.98c6.37,1.99,13.34,1.99,19.91,1v-.07ZM210.49,115.3c-29.06,14.86-52.95,49.24-34.31,81.49,19.77,34.17,72.33,34.51,92.57.6,18.85-31.59-3.72-66.82-33.05-81.15-8.36,1.53-16.99,1.53-25.15-.93h-.07Z"/>
    </g>
    <path class="st1" d="M240.28,179.34c0,2.59-.4,4.98-1.19,7.17s-1.99,4.11-3.52,5.71-3.38,2.85-5.57,3.72-4.64,1.33-7.37,1.33c-.33,0-.8-.13-1.53-.33s-1.46-.6-2.39-1.19-1.79-1.33-2.72-2.19-1.79-2.06-2.59-3.45-1.39-3.05-1.92-4.91-.73-4.05-.73-6.57v-17.72h-11.08v-4.78h11.08v-12.87h-.2c-.53.33-1.13.53-1.79.53-.46,0-.93-.07-1.33-.27s-.8-.46-1.19-.8-.6-.73-.8-1.13-.33-.93-.33-1.46c0-.46.13-1,.33-1.53s.53-1.06.93-1.46.93-.8,1.53-1.13,1.33-.46,2.12-.46c1.13,0,2.06.27,2.79.86s1.39,1.33,1.86,2.19.8,1.92,1,3.05.33,2.32.33,3.45v11.02h29.53v4.78h-29.53v17.72c0,1.66.13,3.19.46,4.51s.66,2.46,1.13,3.52,1,1.86,1.53,2.59,1.13,1.26,1.66,1.73,1.06.8,1.46,1,.8.33,1.06.33c1.33,0,2.65-.33,4.11-.93s2.72-1.46,3.85-2.52,2.06-2.39,2.85-3.92,1.13-3.19,1.13-5.04c0-.93-.07-1.79-.27-2.79s-.53-1.92-.93-2.92c-.46.6-1,1.19-1.53,1.66s-1.13.86-1.79,1.19-1.26.6-1.92.73-1.26.27-1.86.27c-.73,0-1.33-.13-1.92-.33s-1-.53-1.39-1-.66-.86-.8-1.39-.27-1.06-.27-1.66c0-1.06.2-1.99.66-2.85s1-1.59,1.73-2.12,1.53-1.06,2.46-1.39,1.86-.46,2.79-.46c1.66,0,3.19.33,4.38,1.06s2.32,1.66,3.12,2.85,1.46,2.52,1.86,4.05.6,3.05.6,4.64l.13-.07Z"/>
  </g>
  <rect class="st0" x="72.59" y="71.95" width="254.66" height="254.66"/>
</svg>