<?xml version="1.0" encoding="UTF-8"?>
<svg id="Layer_1" xmlns="http://www.w3.org/2000/svg" version="1.1" viewBox="0 0 400 400">
  <!-- Generator: Adobe Illustrator 29.6.1, SVG Export Plug-In . SVG Version: 2.1.1 Build 9)  -->
  <defs>
    <style>
      .st0 {
        fill: #231f20;
      }

      .st1 {
        fill: #007236;
      }
    </style>
  </defs>
  <path class="st1" d="M56.83,159.87l-7.12-2.22c15.36-49.22,53.56-88.88,102.19-106.09l2.49,7.03c-46.43,16.43-82.9,54.29-97.56,101.28Z"/>
  <path class="st1" d="M206.8,371.23c-62.4,0-118.68-34.61-146.88-90.33l6.66-3.37c26.92,53.19,80.65,86.24,140.23,86.24s115.46-34.88,141.52-88.86l6.72,3.25c-27.3,56.54-85.49,93.07-148.24,93.07Z"/>
  <path class="st1" d="M356.98,160.58c-13.37-43.6-45.02-79.19-86.82-97.64l3.01-6.82c43.79,19.33,76.93,56.61,90.94,102.28l-7.13,2.19Z"/>
  <polygon class="st1" points="161.71 52.73 138.53 48.41 146.38 70.65 161.71 52.73"/>
  <polygon class="st1" points="362.33 168.61 367.21 145.54 344.79 152.85 362.33 168.61"/>
  <polygon class="st1" points="60.27 272.9 58.82 296.43 79.93 285.93 60.27 272.9"/>
  <g>
    <path class="st1" d="M231.51,45.84c.16.16.29.48.37.7,1.3,3.44,1.95,7.42,3.22,10.9.18.73-.16,1.31-.81,1.6l-41.73.02c-.79-.26-.94-1.05-.77-1.8,1.07-3.39,1.69-7.06,2.77-10.43.17-.53.29-1.06.89-1.26l35.59-.02c.14.1.36.18.47.29ZM198.3,46.52h-2.4l-.25.36-2.86,11.03c.02.05.11.17.14.17h4.45l.92-11.56ZM203.82,46.52h-4.5l-.92,11.56h5.42v-11.56ZM209.76,46.52h-4.91v11.56h4.91v-11.56ZM215.69,46.52h-4.91v11.56h4.91v-11.56ZM221.73,46.52h-4.91v11.56h4.91v-11.56ZM227.15,46.52h-4.4v11.56h5.42l-1.02-11.56ZM229.2,58.08h4.76c.33,0-.14-1.3-.2-1.53-.89-3.26-2-6.46-2.86-9.72l-.2-.31h-2.51l1.02,11.56Z"/>
    <path class="st1" d="M192.57,63.81h41.74v-3.02c0-.39.99-.85,1.12,0-.16,2.21.24,4.78,0,6.95-.1.95-.77,1.39-1.68,1.39l-41-.03c-.84-.12-1.24-.63-1.31-1.45-.19-2.18.15-4.64.01-6.85.13-.84,1.12-.47,1.12.1v2.92ZM234.31,64.83h-41.74v3.17h41.74v-3.17Z"/>
    <path class="st1" d="M225.28,44.34c-.3.3-.98.08-.9-.43v-18.72c.39-2.26,3.46-2.51,4.24-.36.36,6.29.05,12.66.16,18.98-.11.93-1.04.89-1.13,0v-18.51c-.39-1.27-2.09-1.18-2.25.2v18.32c0,.16-.01.42-.13.53Z"/>
    <path class="st1" d="M200.43,23.32c1.06-.06,2.15.8,2.27,1.87v18.83c-.07.68-.99.55-1.03-.1l-.07-18.85c-.56-.98-1.85-.84-2.17.24v18.62c-.05.6-.8.79-1.03.2v-18.93c.1-1.01,1.03-1.81,2.03-1.87Z"/>
    <path class="st1" d="M203.59,28.12l19.52-.03c1.08.05.95,1.18-.1,1.13h-19.24c-.77-.06-.96-.86-.18-1.11Z"/>
    <path class="st1" d="M203.69,31.4l19.63-.03c.66.04.78.95.1,1.03l-19.96-.1c-.3-.32-.14-.73.24-.91Z"/>
    <path class="st1" d="M219.4,33.55c.44-.44,1.06.1,1,.64-.2,2.47.27,5.36,0,7.78-.12,1.06-1.02,1.03-1.13.1.17-2.58-.22-5.43,0-7.99.01-.16.02-.42.13-.53Z"/>
    <path class="st1" d="M197.35,31.5c.24.24.19.81-.23.89-.36.07-1.74.05-2.14,0-2.28-.31-2.36-3.91.22-4.26.41-.06,1.92-.1,2.21.09s.35.63.06.85c-.75.57-3.17-.58-3.18,1.23s2.59.74,3.05,1.2Z"/>
    <path class="st1" d="M207.92,42.37c-.09.51-1.02.41-1.02,0v-8.7c0-.33,1.02-.33,1.02,0v8.7Z"/>
    <path class="st1" d="M230.09,28.12c.76-.17,1.99.02,2.59.54,1.33,1.14.68,3.55-1.08,3.74-.45.05-2.33.18-1.92-.69.37-.77,2.53.3,2.69-1.32s-2.06-.9-2.55-1.32c-.39-.33-.22-.84.27-.95Z"/>
  </g>
  <path class="st1" d="M357.63,231.27c-2.01-.16-4.21-.9-6.08-1.63-8.2-3.2-16.12-7.23-24.26-10.57-4.7-2.99-2.77-8.82,2.94-7.9l15.02,3.63,1.29-.91c6.67-1.72,13.83-4.79,20.55-6.07,4.4-.84,8.26.14,12.49,1.23v-2.19c0-.64,1.33-1.92,2.07-1.9,3.6.26,7.79-.39,11.32-.01,1.4.15,2.1,1.3,2.2,2.61.49,6.49-.38,13.57,0,20.12-.07,1.21-.95,2.33-2.2,2.47-3.55-.29-7.72.39-11.19,0-.81-.09-2.19-1.12-2.19-1.91v-2.05c-6.31,1.57-12.42,3.94-18.83,5.1h-3.12ZM381.84,227.87h10.83s.21-.21.21-.21v-20.46s-11.05,0-11.05,0v20.68ZM367.86,217.63c-2.21.71-5.32,1.15-7.68,1.67-3.22.71-7.59,1.97-10.73,2.3-2.97.31-5.45-1.68-5.29-4.76l-14.09-3.39c-4.25-.69-3.93,2.91-.72,4.11,8.07,3,16.07,7.58,24.13,10.42,3.06,1.07,5.91,1.31,9.1.68l16.97-4.91v-12.43c-3.37-.67-6.61-1.81-10.11-1.58-1.27.09-2.65.47-3.89.78-5.36,1.38-11.74,3.19-16.96,4.99-2.98,1.03-2.88,3.34.18,3.87l18.7-3.98c1.1-.21,1.83,1.2,1.01,1.94-.15.14-.44.22-.63.29Z"/>
  <g>
    <path class="st1" d="M367.54,204.28h-27.15c-2.05,0-3.72-1.67-3.72-3.72v-17.97c0-2.05,1.67-3.72,3.72-3.72h27.15c2.05,0,3.72,1.67,3.72,3.72v17.97c0,2.05-1.67,3.72-3.72,3.72ZM340.39,180.74c-1.03,0-1.86.83-1.86,1.86v17.97c0,1.02.83,1.86,1.86,1.86h27.15c1.03,0,1.86-.83,1.86-1.86v-17.97c0-1.02-.83-1.86-1.86-1.86h-27.15Z"/>
    <path class="st1" d="M353.44,180.93l-8.29-5.75c-.42-.29-.53-.87-.23-1.29.29-.42.87-.52,1.29-.23l7.26,5.04,8.47-5.54c.43-.28,1.01-.16,1.29.27s.16,1.01-.27,1.29l-9.52,6.23Z"/>
    <path class="st1" d="M353.45,180.74c-.51,0-.93-.42-.93-.93v-8.46c0-.51.42-.93.93-.93s.93.42.93.93v8.46c0,.51-.42.93-.93.93Z"/>
  </g>
  <g>
    <path class="st0" d="M5.05,246.63v4.21h6.95v1.38h-6.95v5.83h-1.47v-12.81h9.19v1.38h-7.72Z"/>
    <path class="st0" d="M23.07,248.42v9.64h-1.4v-1.55c-.56,1.02-1.81,1.77-3.17,1.77-2.13,0-3.62-1.55-3.62-3.73v-6.13h1.4v5.95c0,1.56.99,2.66,2.4,2.66,1.62,0,2.98-1.14,2.98-2.48v-6.13h1.4Z"/>
    <path class="st0" d="M34.13,251.92v6.13h-1.4v-5.95c0-1.56-.99-2.66-2.4-2.66-1.62,0-2.98,1.14-2.98,2.48v6.13h-1.4v-9.64h1.4v1.55c.56-1.03,1.81-1.77,3.17-1.77,2.12,0,3.62,1.55,3.62,3.73Z"/>
    <path class="st0" d="M45.89,245.02v13.03h-1.4v-1.81c-.73,1.27-1.96,2.03-3.5,2.03-2.54,0-4.44-2.09-4.44-5.05s1.9-5.03,4.44-5.03c1.55,0,2.78.76,3.5,2.03v-5.2h1.4ZM44.49,253.22c0-2.22-1.34-3.78-3.24-3.78s-3.22,1.56-3.22,3.78,1.34,3.8,3.22,3.8,3.24-1.58,3.24-3.8Z"/>
    <path class="st0" d="M53.82,251.64c0-3.6,3.02-6.62,6.56-6.62,1.77,0,3.41.75,4.6,1.96l-.99,1.01c-.93-.99-2.22-1.62-3.62-1.62-2.76,0-5.09,2.42-5.09,5.27s2.33,5.29,5.09,5.29c1.4,0,2.68-.63,3.62-1.62l.99,1.01c-1.19,1.19-2.83,1.96-4.6,1.96-3.54,0-6.56-3.04-6.56-6.64Z"/>
    <path class="st0" d="M72.21,248.19v1.25c-2.18,0-3.73,1.34-3.73,3.22v5.39h-1.4v-9.64h1.4v1.88c.58-1.29,1.96-2.11,3.73-2.11Z"/>
    <path class="st0" d="M81.53,255.87l.86.91c-.84.91-2.53,1.49-3.88,1.49-2.57,0-4.88-2.11-4.88-5.07s2.16-5.01,4.75-5.01c2.91,0,4.57,2.2,4.57,5.57h-7.88c.21,1.88,1.53,3.26,3.43,3.26,1.14,0,2.44-.5,3.04-1.15ZM75.08,252.52h6.49c-.19-1.73-1.21-3.07-3.13-3.07-1.72,0-3.09,1.21-3.35,3.07Z"/>
    <path class="st0" d="M94.18,245.02v13.03h-1.4v-1.81c-.73,1.27-1.96,2.03-3.51,2.03-2.53,0-4.43-2.09-4.43-5.05s1.9-5.03,4.43-5.03c1.55,0,2.78.76,3.51,2.03v-5.2h1.4ZM92.78,253.22c0-2.22-1.34-3.78-3.24-3.78s-3.23,1.56-3.23,3.78,1.34,3.8,3.23,3.8,3.24-1.58,3.24-3.8Z"/>
    <path class="st0" d="M96.91,245.73c0-.48.41-.91.93-.91s.91.43.91.91-.41.93-.91.93-.93-.43-.93-.93ZM97.13,248.42h1.4v9.64h-1.4v-9.64Z"/>
    <path class="st0" d="M106.26,257.66c-.5.39-1.14.62-1.79.62-1.38,0-2.35-1.03-2.35-2.46v-6.15h-1.51v-1.25h1.51v-2.65h1.4v2.65h2.37v1.25h-2.37v6.15c0,.71.48,1.21,1.04,1.21.43,0,.8-.17,1.01-.39l.69,1.03Z"/>
  </g>
  <g>
    <path class="st0" d="M329.31,256.23l.91-1.14c1.08,1.08,2.4,1.84,4.19,1.84,1.98,0,2.98-1.08,2.98-2.24,0-1.36-1.21-1.9-3.45-2.42-2.57-.6-4.19-1.4-4.19-3.62,0-2.05,1.83-3.65,4.29-3.65,1.9,0,3.32.74,4.49,1.83l-.9,1.14c-1.06-1.03-2.33-1.64-3.67-1.64-1.58,0-2.74,1.04-2.74,2.22,0,1.32,1.27,1.79,3.45,2.31,2.44.58,4.19,1.45,4.19,3.71,0,2.03-1.53,3.69-4.51,3.69-2.11,0-3.76-.76-5.05-2.03Z"/>
    <path class="st0" d="M349.13,252.18v5.87h-1.4v-1.51c-.69,1.14-2.12,1.73-3.39,1.73-2.03,0-3.52-1.17-3.52-3.08s1.72-3.21,3.78-3.21c1.04,0,2.14.22,3.13.54v-.36c0-1.3-.52-2.8-2.61-2.8-.97,0-1.94.43-2.82.88l-.56-1.14c1.38-.69,2.54-.93,3.47-.93,2.63,0,3.91,1.66,3.91,3.99ZM347.73,255.03v-1.47c-.88-.24-1.86-.39-2.91-.39-1.44,0-2.65.82-2.65,1.97s1.04,1.9,2.4,1.9c1.27,0,2.78-.65,3.15-2.01Z"/>
    <path class="st0" d="M351.99,245.02h1.4v13.03h-1.4v-13.03Z"/>
    <path class="st0" d="M363.6,255.87l.86.91c-.84.91-2.54,1.49-3.88,1.49-2.57,0-4.88-2.11-4.88-5.07s2.16-5.01,4.75-5.01c2.91,0,4.57,2.2,4.57,5.57h-7.88c.21,1.88,1.53,3.26,3.43,3.26,1.14,0,2.44-.5,3.04-1.15ZM357.15,252.52h6.49c-.19-1.73-1.21-3.07-3.13-3.07-1.71,0-3.09,1.21-3.35,3.07Z"/>
    <path class="st0" d="M366.74,256.84l.73-1.03c1.1.8,2.2,1.21,3.26,1.21,1.27,0,2.13-.6,2.13-1.51,0-1.04-1.12-1.38-2.42-1.75-2.33-.67-3.22-1.36-3.22-2.74,0-1.75,1.45-2.83,3.37-2.83,1.19,0,2.42.41,3.45,1.08l-.67,1.08c-.97-.62-1.92-.91-2.78-.91-1.08,0-1.98.48-1.98,1.42,0,.84.71,1.1,2.5,1.68,1.55.48,3.15,1.01,3.15,2.83s-1.53,2.91-3.52,2.91c-1.34,0-2.83-.5-3.99-1.44Z"/>
  </g>
  <g>
    <path class="st0" d="M176.81,283.63h1.64l3.54,10.36,3.39-10.36h1.62l3.39,10.36,3.54-10.36h1.64l-4.38,12.81h-1.44l-3.56-10.9-3.58,10.9h-1.44l-4.38-12.81Z"/>
    <path class="st0" d="M204.05,294.25l.86.91c-.84.91-2.54,1.49-3.88,1.49-2.57,0-4.88-2.11-4.88-5.07s2.16-5.01,4.75-5.01c2.91,0,4.57,2.2,4.57,5.57h-7.88c.2,1.88,1.53,3.26,3.43,3.26,1.14,0,2.44-.5,3.04-1.15ZM197.6,290.9h6.49c-.19-1.73-1.21-3.07-3.13-3.07-1.72,0-3.09,1.21-3.35,3.07Z"/>
    <path class="st0" d="M215.59,290.56v5.87h-1.4v-1.51c-.69,1.14-2.13,1.73-3.39,1.73-2.03,0-3.52-1.17-3.52-3.08s1.72-3.21,3.78-3.21c1.04,0,2.14.22,3.13.54v-.36c0-1.3-.52-2.8-2.61-2.8-.97,0-1.94.43-2.81.88l-.56-1.14c1.38-.69,2.54-.93,3.47-.93,2.63,0,3.91,1.66,3.91,3.99ZM214.19,293.42v-1.47c-.88-.24-1.86-.39-2.91-.39-1.44,0-2.65.82-2.65,1.97s1.04,1.9,2.4,1.9c1.27,0,2.78-.65,3.15-2.01Z"/>
    <path class="st0" d="M217.53,286.8h1.57l3.21,8,3.15-8h1.57l-4.05,9.64h-1.34l-4.1-9.64Z"/>
    <path class="st0" d="M235.68,294.25l.86.91c-.84.91-2.53,1.49-3.88,1.49-2.57,0-4.88-2.11-4.88-5.07s2.16-5.01,4.75-5.01c2.91,0,4.57,2.2,4.57,5.57h-7.88c.21,1.88,1.53,3.26,3.43,3.26,1.14,0,2.44-.5,3.04-1.15ZM229.23,290.9h6.49c-.19-1.73-1.21-3.07-3.13-3.07-1.72,0-3.09,1.21-3.35,3.07Z"/>
    <path class="st0" d="M244.65,286.57v1.25c-2.18,0-3.73,1.34-3.73,3.22v5.39h-1.4v-9.64h1.4v1.88c.58-1.29,1.96-2.11,3.73-2.11Z"/>
  </g>
  <g>
    <path class="st0" d="M167.58,77.71h5.04c2.57,0,4.57,1.64,4.57,3.98s-2.01,3.98-4.57,3.98h-3.63v4.46h-1.41v-12.41ZM172.37,84.33c2.02,0,3.4-.98,3.4-2.64s-1.37-2.64-3.4-2.64h-3.38v5.28h3.38Z"/>
    <path class="st0" d="M184.26,80.57v1.21c-2.11,0-3.61,1.3-3.61,3.13v5.22h-1.36v-9.34h1.36v1.82c.56-1.25,1.9-2.04,3.61-2.04Z"/>
    <path class="st0" d="M185.33,85.45c0-2.66,2.22-4.88,4.84-4.88s4.82,2.22,4.82,4.88-2.2,4.9-4.82,4.9-4.84-2.24-4.84-4.9ZM193.57,85.45c0-1.99-1.55-3.67-3.4-3.67s-3.42,1.68-3.42,3.67,1.55,3.69,3.42,3.69,3.4-1.68,3.4-3.69Z"/>
    <path class="st0" d="M205.89,77.5v12.63h-1.36v-1.75c-.7,1.23-1.9,1.97-3.4,1.97-2.46,0-4.3-2.02-4.3-4.9s1.84-4.88,4.3-4.88c1.5,0,2.69.74,3.4,1.97v-5.04h1.36ZM204.54,85.45c0-2.15-1.3-3.67-3.14-3.67s-3.12,1.52-3.12,3.67,1.3,3.69,3.12,3.69,3.14-1.54,3.14-3.69Z"/>
    <path class="st0" d="M216.7,80.79v9.34h-1.36v-1.5c-.54.99-1.75,1.72-3.07,1.72-2.06,0-3.51-1.5-3.51-3.61v-5.94h1.36v5.76c0,1.52.96,2.58,2.33,2.58,1.57,0,2.89-1.1,2.89-2.4v-5.94h1.36Z"/>
    <path class="st0" d="M218.96,85.45c0-2.66,2.22-4.88,4.84-4.88,1.27,0,2.44.52,3.33,1.37l-.94.92c-.61-.67-1.46-1.08-2.39-1.08-1.86,0-3.41,1.68-3.41,3.67s1.55,3.69,3.41,3.69c.94,0,1.81-.43,2.44-1.14l.94.92c-.89.89-2.08,1.43-3.38,1.43-2.62,0-4.84-2.24-4.84-4.9Z"/>
    <path class="st0" d="M234.03,89.75c-.49.38-1.1.6-1.73.6-1.34,0-2.28-.99-2.28-2.38v-5.96h-1.46v-1.21h1.46v-2.57h1.36v2.57h2.29v1.21h-2.29v5.96c0,.69.47,1.17,1.01,1.17.42,0,.78-.16.97-.38l.67.99Z"/>
    <path class="st0" d="M235.71,78.18c0-.47.4-.89.9-.89s.89.42.89.89-.4.9-.89.9-.9-.42-.9-.9ZM235.92,80.79h1.36v9.34h-1.36v-9.34Z"/>
    <path class="st0" d="M239.5,85.45c0-2.66,2.22-4.88,4.84-4.88s4.82,2.22,4.82,4.88-2.2,4.9-4.82,4.9-4.84-2.24-4.84-4.9ZM247.74,85.45c0-1.99-1.56-3.67-3.4-3.67s-3.41,1.68-3.41,3.67,1.55,3.69,3.41,3.69,3.4-1.68,3.4-3.69Z"/>
    <path class="st0" d="M259.36,84.18v5.95h-1.36v-5.76c0-1.52-.96-2.58-2.33-2.58-1.57,0-2.89,1.1-2.89,2.4v5.95h-1.36v-9.34h1.36v1.5c.54-.99,1.75-1.72,3.07-1.72,2.06,0,3.51,1.5,3.51,3.61Z"/>
  </g>
  <path class="st1" d="M122.82,216.81h5.04c-.12-5.71-.6-11.39,0-17.1.19-1.81,1.19-8.95,3.04-9.51,2.86-.88,6.16,3.21,7.37,5.38.88,1.58,1.21,3.35,2.14,4.76,8.22,1.51,16.44,2.96,24.79,3.61.04-3.26-.54-6.64-.64-9.87-.07-2.22-.34-7.19.02-9.11.07-.36.12-.63.51-.76,2.33-.6,3.16,3.94,4.42,4.32,1.42.43,1.93-.92,3.23-.89.6,3.07-1.07,4.71-2.19,7.21,2.84-.95,5.58.71,8.33,1.23,7.54-4.33,14.57-10.72,22.21-14.77,1.98-1.05,4.42-2.15,6.65-2.45.55-.07,2.52.11,2.65-.02.18-.19-.32-1.72,1.49-2.11,3.54-.78,8.23,1.3,11.28,3.02.68.38,2.38,1.85,2.83,1.89.36.03,1.27-.96,2.22-1.14,2.18-.4,6.14.53,7.84-.6,1.71-1.14-.54-2.98-1.22-4.28-2.56-4.9-4.34-11.1-4.04-16.7.08-1.44.96-3.99.92-5.02-.03-.8-1.07-1.68-1.2-2.84-.5-4.56,5.42-8.87,9.57-8.92.94-.01,1.81.5,2.79.32.92-.17,2.12-2.15,3.99-2.61,4.43-1.09,9.88.52,12.63,4.2,5.41,7.24,1.35,16.71,3.16,24.77,1.31,5.87,6.44,10.52,7.35,16.82,1.16,8.05-2.24,12.65-5.36,19.36-1.88,4.03-2.63,9.67-7.76,11.06-.73.2-1.94-.06-2.38.45l-1.58,8.79,14.03,6.37c1.2.58,2.3-.19,3.51-.09,3.3.28,3.15,3,3.02,5.64h5.54s0,.63,0,.63l-5.95.06c-3.49,3.05-8.14,5.09-12.35,7.11-5.47,2.62-11.15,4.86-16.69,7.31-.53,3.12.25,9.86-1.18,12.48-1.21,2.23-4.52.38-4.52-1.39v-8.16l-.65-.35c-12.46,4.77-24.76,10.2-37.46,14.32-3.09,1-11.54,3.98-14.31,3.3-2.83-.69-1.75-6.78-1.55-9.12.3-3.48,1.18-7.06,1.1-10.51-14.15-11.06-27.53-23.04-40.64-35.3-20.07.12-1.79-.37-21.98-.16v-.63ZM248.35,140.25c-1.74,0-3.58.84-4.36,2.41-.09.7,4.46,2.78,2.15,4.64-1.98,1.59-4.01-2.41-3.47-4.2-4.72-1.77-13.03,3.36-11.37,8.7,1.44,4.62,9.75,3.01,13.3,3.96,5.17,1.39,8.17,7.3,7.83,12.41l.98-2.62c.43-.98.84-6.41,1.68-6.46.04,0,.71.33.73.37,1.06,1.54-.82,6.48-1.65,8.1-1.56,3.06-5.24,5.47-1.71,8.59,4.11,3.65,11.18,3.73,14.11,9.12,2.7,4.96.81,9.35-.25,14.2-.07.32-.32,1.1.24,1.02,2.84-6.24,4.24-12.15,1.72-18.82-1.7-4.49-5.27-8.23-6.33-13.12-1.34-6.18.86-12.67-.55-18.9-1.04-4.59-4.33-8.3-8.95-9.4.24,1.09,1.01,1.36.96,2.66-.22,5.13-10.57,2.2-5.04-2.66ZM247.81,144.24c1.47,1.79,6.09.72,4.76-2.41-1.31-3.11-7.08-.4-4.76,2.41ZM243.33,143.7c-.15,1.6.56,3.75,2.52,3.31,1.26-.91-1.26-3.48-2.52-3.31ZM232.5,154.06c-2.31,5.65-.78,13.54,1.67,19.03,2.53,5.67,4.98,8.23,11.01,4.63,7.02-4.19,9.39-13.37,3.01-19.28-4.81-4.45-10.82-.68-15.7-4.38ZM253.69,166.61c1.21-1.48,2.48-4.85,1.41-6.59l-1.41,6.59ZM250.54,174.14c-.48-.13-.52.13-.78.31-1.28.88-2.38,2.56-3.95,3.59-2.75,1.79-5.5,2.83-8.56,1.1-2.03,4-7.83.14-10.55,3.01,0,.28,2.97,2.39,3.43,2.53,1.63.48,3.68.08,5.34,1.25.9.63.84,1.39,1.41,2.04,1.55,1.75,3.98,4.06,5.84,5.45,2.59,1.93,7.58,3.57,9.36,5.38,2.35,2.38-1.15,4.23-1.23,6.72,1.32-.79,1.54-2.74,2.22-4.06l4.05,1.54c-.79-1.41-2.99-2.65-3.72-3.96-1.47-2.65.27-8.78,1.78-11.32.83-1.4,2.28-3.47,4.14-3.23.72.72-3.41,6.32-3.99,7.46-.54,1.08-1.94,4.19-1.92,5.25.04,2.77,3.93,3.95,4.34,6.42-1.72.3-2.89-1.09-4.39-1.57-.26.94-1.41,4.38-2.66,4.08-1.62-.39,1.59-4.68,1.63-5.54.1-1.98-6.62-4.48-8.37-5.62-2.65-1.74-5.04-4.27-7.4-6.4-.76,1.26-1.13,6.11-3.05,5.91-.63-.07-2.46-.84-2.39-1.62.04-.43,2.35-4.62,2.77-5.08.7-.79,1.62-.5,1.57-1.4-4.35-1.61-4.8-1.46-6.75,2.5-2.12,4.3-.38,3.17,2.51,5.66,7.76,6.71,8.8,19.65,21.03,21.02.18-.43-.44-.83-.44-1.41,0-2.26,4.59-2.72,5.48-.78.36.79-.61,2.15.3,1.87,1.71-.54,3.96-4.05,4.7-5.65,2.6-5.65,6.41-16.9,4.31-22.8-2.62-7.33-12.96-6.05-16.07-12.65ZM230.15,185.13c-2.75-1.09-4.86-3.45-7.44-4.96-3.46-2.03-7.65-3.71-11.69-2.55-.4,1.63,1.75.84,3.14,1.06,1.06.17,4.34.99,3.59,2.37-2.28.25-4.27-.54-6.28-1.48l-.64.55c.09,3.48,5.07.61,6.76,3.29.53,2.49-8.15-2.62-7.09,1.1.69,2.41,4.96-.03,6.46,2.03-.54,2.02-4.67-.29-5.31.17l-.05,1.65c2.42,1.9,5.6,1.15,8.34,1.48,2.31.28,4.56.87,6.85,1.22l3.35-5.92ZM216.97,180.1c-1.42-.48-2.84-1.11-4.39-.94.46.69,1.96,1.03,2.75,1.17.35.06,1.65.38,1.64-.23ZM210.38,179.47c-5.84-.54-10.95,3.5-15.6,6.52-5.03,3.27-9.85,6.91-14.83,10.27l19.45,7.24c4-5.62,9.69-10.59,11.88-17.23l-1.38-2.05,1.12-2.07c-.52-.9-.8-1.6-.63-2.68ZM172.41,188.57c-.79-.17-1.38.56-2.07.63-2.58.26-2.64-4.39-5.15-4.39l.63,19.14c.34.34,3.19-.85,3.4-1.46.15-3.03-.34-5.86,1.03-8.7.81-1.67,2.42-2.96,2.16-5.21ZM258.7,185.12c-.32-.33-1.64,1.12-1.89,1.4-1.61,1.81-2.67,4.32-2.81,6.75l4.7-8.16ZM234.2,193.88c.34-.98,2.36-5.87,1.12-6.25-.6-.11-.73.09-1.05.51-.87,1.14-1.58,3.43-2.52,4.67l2.45,1.07ZM215.71,190.14c-1.71.11-3.43-.44-4.7-1.57-2.57,5.5-7.21,9.93-10.82,14.75l-.16.93,6.9,2.51c-.28-1.18-1.35-2.08-1.55-3.31-1.04-6.54,6.27-8.89,9.86-12.38.31-.3.59-.42.47-.94ZM131.77,190.58c-2.26.1-3.09,7.04-3.29,8.82-.43,3.89-.51,8.64-.33,12.56.04.78.25,4.28.37,4.65.22.66,1.65.79,2.3.84,3.86.32,8.24-.74,12.21-.37l.36-.59c-3.18-3.41-8.19-6.39-10.99-10.03-2.18-2.84-1.29-6.29,2.5-6.61,1.33-.11,2.93.41,3.79.34.39-.03.54-.19.77-.48-.69-2.66-4.63-9.27-7.68-9.14ZM220.74,198.3c.31.33,6.43-4.71,6.57-5.77-.27-1.58-8.81-2.39-10.36-1.93-1.15.34-8.12,5.8-9.08,6.93-4.09,4.82-1.45,9.74,4.18,11.11l3.2-4.07c.37-.44-.23-1.96-.8-1.72-1.51.8-2.19,4.91-4.26,3.33-1.23-.94,1.08-2.84,1.96-3.42,1.33-.88,6.9-2.44,7.32-3.35l-3.92-2.66-.47-.94c1.92-.39,5.47.1,5.65,2.51ZM241.13,220.58c.29-2.95.34-6.3,1.85-8.9-6.05-5.63-6.98-14.66-14.88-18.66-2.01,1.81-3.96,3.82-6.14,5.42-.63.46-1.79,1.34-2.38,1.7-1.28.76-4.51,1.4-4.06,2.88s1.6.39,3.02.76c2.98.79,6.66,3.62,5.58,7.17-.29.96-2.09,1.18-.25,2.89l17.26,6.75ZM178.06,196.42c-1.86-.46-3.7-1.27-5.65-1.26l4.68,2.06.96-.81ZM170.69,195.47c-.94.13.16,1.48.45,1.74,1.28,1.15,4.17,2.41,5.34.61,0-.43-5.38-2.41-5.79-2.35ZM220.1,198.61c.07-1.88-2.3-2.28-3.76-2.51-.18.8.21.55.59.81.97.69,2.07,1.26,3.17,1.7ZM198.08,205.46l.68-1.04c-6.31-2.94-13.05-5.16-19.61-7.56l-1.09.66,20.02,7.94ZM169.9,202.06l4.07-2.67-4.07-2.35v5.02ZM197.51,206.16l-19.75-8.05-1.89.98,20.62,8.56.72.06.31-1.55ZM234.85,236.58l2.46-9.33-.45-.67c-19.97-9.88-40.44-18.65-61.24-26.65-1.11-.54-5.52,2.65-5.69,3.29l.47,1.01,64.45,32.35ZM165.19,204.88c-.12-.57-.62-.59-1.08-.64-3.43-.38-6.89-.49-10.32-.97-5.3-.75-14.28-3.35-19.19-2.78-5.12.59-2.4,6.27.63,7.86l2.76-2.9c8.05-4.16,17.57-.56,25.89-.33.51.01.84-.15,1.32-.24ZM212.89,203.32c-.44-.45-4.48,2.97-1.4,2.54l1.4-2.54ZM156.09,204.58c-5.07-.32-14.5-1.7-18.62,1.93-3.35,2.95.62,4.44,2.93,6.23,2.71-5.56,8.64-6.76,14.19-7.62.37-.06,1.52-.08,1.5-.53ZM222.93,214.3c.33-.36-3.1-8.38-3.63-9.08-2.46-3.22-7.67,2.7-5.31,5.93.51.7,1.8,1.27,2.66,1.26l-.94-2.35c2.66-.37,1.64,3.97,4.71,3.6-1.26-1.66-3.3-3.65-2.67-5.96,2.33,1.53,2.07,5.95,5.18,6.59ZM177.12,208.34c-2.44-1.77-6.78-4.14-9.9-3.78-.69.08-.98.27-1.4.81l11.29,2.98ZM212.81,209.99l-13.33-5.37h-.35c-.15.81-1.25,1.12-.24,1.56,4.29,1.87,10.14,4.55,14.48,5.93.2.07.53.06.46-.15-.52-.41-.65-1.62-1.02-1.96ZM223.56,211.16c.42-2.71-.8-5.09-3.45-5.96l.94,2.82,1.25-.63c-.24,1.39-.59,3.45,1.26,3.76ZM178.06,209.29c-8.82-3.17-19.32-5.35-28.55-2.67-3.38.98-7.35,3.15-8.74,6.54l1.05,1.14c6.76-9.24,19.93-8.86,30.03-6.49,1.72.4,3.55,1.24,5.25,1.65.32.08,1.03.41.96-.17ZM240.45,224.08c-12.6-5.39-25.18-10.84-37.93-15.88-1.01-.4-3.19-1.48-4.05-1.62-.67-.11-.71.91-.88,1.31,6.09,2.84,12.48,5.42,18.65,8.25,7.62,3.49,15.15,7.22,22.69,10.89l1.26.15.26-3.09ZM189.98,214.62c-5.33-2.29-11.24-4.41-16.87-5.88-9.93-2.58-23.79-3.64-30.52,5.72,0,.54,2.76,3.26,3.14,2.98.93-3.34,3.59-5.65,6.69-6.96,11.3-4.77,25.31,2.19,36.6,4.31.32.06,1.03.41.95-.17ZM190.3,215.56c-11.41-1.72-29.77-10.8-40.27-3.09-1.58,1.16-5.71,5.43-2.41,6.53.07-2.48,2.57-4.99,4.61-6.22,9.19-5.52,23.8,1.09,33.61,2.68.93.15,2.12.36,3.03.42.34.02,1.48.22,1.42-.32ZM193.75,216.5c-12.09,1.15-27.06-8.36-38.76-4.41-2.71.92-7.72,4.7-6.68,7.96.13.41.45.61.88.52.87-7.48,7.34-9.08,13.88-8.07,5.35.83,10.63,2.92,16.13,3.64,3.91.52,7.94.56,11.88.67.86.02,2.15.9,2.67-.31ZM250.53,215.89c-.94-.28-2.01-.6-2.88-1.05-3.85-2.01-4.42-4.41-5.49,1.28-2.14,11.39-3.31,26.85-3.56,38.49-.04,1.99-.27,9.02,1.09,10.23,2.57,2.27,3.08-1.92,3.31-3.63.84-6.33-.56-13.26.98-19.42,1.05-4.2,4.15-4.02,4.36-9.77.1-2.64-.79-1.73-1.58-2.88-1.6-2.32,1.65-5.98,2.53-8.4.23-.62,1.38-4.65,1.23-4.86ZM183.71,218.69c.14-.59-.2-.61-.52-.89-1.57-1.38-5.7-1.29-7.96-1.77-6.49-1.38-17.79-6.15-23.22-.65-1.54,1.56-3.55,5.77-.93,7.07.49-3.24,2.71-5.1,5.72-6.05,8.98-2.82,17.84,3.08,26.91,2.28ZM253.91,212.79c-3.91.84,1.1,4.88,2.93,1.35.15-1.32-1.94-1.56-2.93-1.35ZM240.76,221.26l-16.66-6.75c-.64-.24-.95.5-1.62.44-.65-.06-1.83-1.15-3-.64l20.61,9.05c.92.09.83-1.53.67-2.1ZM185.9,219.95c.1-.6-.25-.85-.79-.94-1.06-.19-3.45.4-5.01.31-7.69-.44-18.81-6.12-25.87-1.07-1.27.91-3.69,4.53-1.91,5.64,1.1.69,1.41-1.31,2.21-2.21,5.63-6.32,15.59-1.96,22.44-1.42,2.89.23,6.07-.03,8.94-.31ZM253.68,216.19l-2.47.04c-.59,2.37-1.55,4.65-2.3,6.97-.1.32-.47.3.06.67l3.13,1.11,1.57-8.79ZM234.49,236.94l-38.85-19.36-12.25-.46,25.51,14.49c4.35,2.67,8.75,5.24,13.06,7.97,1.32.83,8.39,5.91,9.02,6.01.56.09,2.01-.55,2.24-1.09.29-.69,1.49-7.23,1.27-7.57ZM188.73,220.9c-1.93-1.34-3.56-.13-5.49-.01-8.27.51-18.98-4.25-25.98-.57-2.1,1.11-5.69,4.67-1.79,5.9.73-1.86,2.8-3.08,4.65-3.67,7.76-2.48,17.2,2.02,25.55.14.37-.08,3.68-.97,3.07-1.79ZM193.75,223.72l-3.88-1.84c-8.5,7.66-24.22-3.74-29.93,8.58l4.16,3.91h.45c1.21-2.9,4.63-5.14,7.55-6.09,4.88-1.59,9.76-.16,14.74-1.26.71-.16,7.48-2.46,6.9-3.29ZM186.84,223.09c-7.98,2.15-16.37-1.52-24.28-.6-1.76.21-6.82,2.02-6.78,4.21,0,.4,3.33,3.35,3.59,3.29,5.31-10.26,16.62-4.3,25.28-6.11.56-.12,1.92-.29,2.18-.79ZM196.26,224.98c-.7-.04-1.22-.7-1.97-.59-.62.1-3.9,2.16-5.26,2.61-5.96,1.97-10.68,0-16.47,1.73-3.12.94-6.62,3.25-7.66,6.39l1.71,1.45c1.83-3.28,4.17-5.89,7.99-6.76,4.7-1.07,8.72,1.36,13.52-.91,1.05-.5,2.01-1.54,3.12-1.9,1.51-.49,4.45.01,5.03-2.03ZM266.23,231.88l-17.49-7.48c-.84-.32-1.59,1.04-.62,1.27l15.91,6.69c.58.23,1.98.25,2.2-.48ZM202.22,228.43c-2.48-.77-4.18-3.56-6.9-1.88-.58.62,1.71,1.01,2.09,1.19,1.46.7,4.28,3.14,4.81.69ZM263.41,232.51l-16.31-6.59c-.24,1.11-.44,2.01.3,3l13.07,4.84c.6.06,1.95-.34,2.51-.59.27-.12.97-.12.44-.65ZM238.62,243.49c-7.15,2.1-13.85,6.01-21.02,8-2.43.68-9.82,2.55-10.6-1.01-.36-1.62.74-4.38.8-6.23.28-8.15-6.6-16.13-14.67-17.07l4.91,2.14c5.11,3.01,8.87,8.9,8.26,14.95-.24,2.37-3.15,7.84-1.75,9.6,2.18,2.74,9.83.41,12.72-.51,7.12-2.27,14.14-5.79,21.31-8.03l.04-1.85ZM239.83,227.84l-1.69-.62-.4.48-3.82,16.73,2.76-1,3.16-15.59ZM238.62,246c-7.9,2.3-15.64,6.43-23.53,8.63-2.91.81-11.06,2.72-11.6-1.91-.27-2.34,2.5-6.91,2.5-10.01,0-6.58-7.36-14.68-14.05-14.82-2.01-.04-2.46.55-2.81,2.35-1.3,6.62-2.06,14.8-2.87,21.61-.53,4.5-1.38,9.65-1.61,14.08-.07,1.41-.44,5.57,1.15,6.05,1.91.58,8.18-1.4,10.38-2.05,14.03-4.15,27.77-10.52,41.47-15.63.41-.2.56-.5.64-.93.39-2.04-.27-5.13.32-7.36ZM188.73,229.37c-4.92,2.5-9.93-.34-14.92,1.24-2.75.87-5.74,3.51-6.37,6.39.34.57,2.5,2.79,3.07,2.4,1.73-3.68,6.48-6.66,10.55-6.88,3.1-.17,7.8,2,7.68-3.14ZM210.07,232.82c-2.49-.49-5.34-4.64-7.53-2.03l3.93,5.17c.61-.36,4.03-2.55,3.6-3.13ZM259.64,234.38c-.36-.69-1.43-.89-2.12-1.17-2.78-1.13-5.69-2-8.55-2.9-.01,3.63-.55,6.97-3.45,9.41l14.12-5.33ZM270.63,232.19c-8.95.76-17.09,5.66-25.52,8.45l-.84,2.22c8.15-2.64,16.2-5.91,24.06-9.36.73-.32,1.87-.64,2.3-1.3ZM188.1,232.82c-2.55,1.35-4.99.05-7.65.35-3.06.34-8.1,3.1-9.37,6.01-.71,1.64,2.76,3.44,3.98,4.3,1.6-2.87,3.11-4.67,6.39-5.55,3.38-.9,7.47-.07,6.65-5.11ZM243.96,251.64c5.54-2.29,11.12-4.57,16.53-7.16,2.19-1.05,11.06-5.21,11.99-6.84.61-1.06.85-5.32-1.23-4.7l-26.81,10.87c-.03.39-.49,1.15-.49,1.4v6.43ZM214.15,235.33c-1-.1-1.85-1.36-2.74-1.53-1.49-.28-3.39,2.04-4.64,2.76.21.86.54,3.33,1.74,3.03.86-.22,6.25-3.42,5.64-4.26ZM238.54,242.78c.73-.61.45-7.04,1.02-8.39-.56.1-.54.63-.67,1.05-.28.89-1.76,7.42-1.52,7.73.32-.23.97-.23,1.17-.39ZM215.09,235.96c-1.38.57-2.16,1.79-3.48,2.64-1.04.67-2.34,1.06-3.34,1.67-.88.54-.37,1.43.56,1.2,1.03-.26,6.82-4.97,6.26-5.51ZM208.18,246.62c4.75-.43,9.91-2.72,11.88-7.33-.09-.46-3.87-2.82-4.44-2.67-1.02.27-5.15,5.72-7.44,5.61v4.39ZM187.79,237.21c-5.02,1.15-10.76,1.08-12.21,7.17l1.22.67c1-2.81,3.34-4.96,6.11-5.97,1.58-.57,3.79-.5,4.88-1.87ZM187.47,238.47c-4.43.82-8.48,2.33-10.32,6.8l8.28,7,2.04-13.8ZM207.56,249.76c4.89.09,8.91-3.67,11.77-7.21.64-.79,1.73-1.82,1.72-2.83-3.27,4.46-7.51,7.1-13.13,7.57l-.36,2.47ZM207.56,250.39c2.51,3.46,8.03.56,10.99-1.1,1.18-.66,7.79-5.18,7.52-6.27l-4.2-2.66c-3.9,4.54-7.71,9.87-14.32,10.02ZM216.66,251.01c4.66-1.19,9.2-3.02,13.48-5.17l-3.29-2.28-4.26,3.82-5.93,3.63Z"/>
  <g>
    <g>
      <path class="st1" d="M58.52,238.11c-6.08-1.1-11.89-3.34-17.87-4.84v1.95c0,.76-1.32,1.73-2.08,1.81-3.3.37-7.25-.28-10.62,0-1.18-.13-2.02-1.19-2.09-2.35.36-6.21-.46-12.94,0-19.09.09-1.24.76-2.34,2.09-2.48,3.35-.36,7.32.26,10.74.01.7-.02,1.96,1.19,1.96,1.8v2.08c4.02-1.04,7.68-1.97,11.85-1.17,6.38,1.22,13.17,4.13,19.5,5.76l1.23.87,14.25-3.44c5.42-.87,7.25,4.66,2.79,7.5-7.73,3.17-15.24,7-23.02,10.03-1.78.69-3.87,1.4-5.77,1.55h-2.96ZM38.5,215.26h-10.48v19.42l.2.2h10.28v-19.62ZM51.17,224.89c-.77-.7-.09-2.04.96-1.84l17.74,3.78c2.9-.51,2.99-2.7.17-3.67-4.95-1.71-11-3.43-16.09-4.74-1.17-.3-2.49-.66-3.69-.74-3.32-.22-6.4.86-9.6,1.5v11.79s16.11,4.66,16.11,4.66c3.03.6,5.74.38,8.64-.64,7.66-2.69,15.25-7.04,22.9-9.89,3.05-1.14,3.35-4.56-.68-3.9l-13.38,3.22c.16,2.92-2.19,4.81-5.02,4.52-2.98-.31-7.13-1.51-10.18-2.18-2.23-.49-5.19-.91-7.28-1.59-.19-.06-.46-.14-.6-.27Z"/>
      <path class="st1" d="M61.75,169.3l1.68.82,1.68-.82h1.08l1.68.82c.45,0,1.19-.66,1.68-.82h1.21c4.43,2.04.7,6.1-.12,9.18.05.19,2.79,1.8,3.25,2.13,8.15,5.96,12.16,16.79,5.33,25.44-7.36,9.31-22.95,8.21-28.64-2.26-5.07-9.32.26-18.87,8.28-24.15.59-.39,1.34-.66,1.8-1.17.11-.42-1.97-4.41-2.18-5.31-.41-1.73.49-3.38,2.19-3.87h1.08ZM68.44,178.28c.1-.3.11-.62.23-.91.51-1.28,1.8-3.49,2.05-4.67.11-.5-.05-1.33-.68-1.23-.52.08-.96.76-2.04.8-1.31.05-1.72-.77-2.3-.82-.35-.03-.83.5-1.23.65-.61.22-1.27.24-1.9.07-.9-.23-2.02-1.69-1.98.5l2.26,5.34c1.79.56,3.75.57,5.59.28ZM62.24,180.08c-8.16,4.18-14.89,13.83-9.65,22.9,5.55,9.61,20.34,9.69,26.02.17,5.29-8.88-1.05-18.78-9.29-22.81-2.35.43-4.77.43-7.07-.26Z"/>
    </g>
    <path class="st1" d="M70.6,198.08c0,.73-.11,1.4-.34,2.02s-.56,1.15-.98,1.6-.95.8-1.56,1.05-1.3.38-2.08.38c-.08,0-.23-.03-.42-.1s-.42-.17-.66-.33-.5-.37-.76-.62-.5-.58-.72-.97-.4-.85-.54-1.38-.21-1.15-.21-1.84v-4.97h-3.11v-1.34h3.11v-3.62h-.05c-.16.09-.33.15-.5.15-.13,0-.25-.03-.37-.08s-.23-.13-.33-.22-.17-.2-.23-.32-.09-.26-.09-.41c0-.13.03-.28.09-.43s.15-.29.26-.42.26-.23.44-.31.38-.12.61-.12c.32,0,.58.08.79.24s.39.36.52.62.23.54.29.87.09.65.09.97v3.09h8.3v1.34h-8.3v4.97c0,.47.04.9.12,1.27s.19.7.32.98.28.53.43.72.31.36.46.49.29.22.42.28.22.09.29.09c.37,0,.75-.08,1.15-.25s.76-.41,1.08-.71.59-.67.8-1.1.31-.9.31-1.43c0-.25-.03-.51-.08-.77s-.14-.53-.26-.82c-.13.18-.27.33-.43.46s-.33.25-.5.34-.35.16-.53.2-.35.07-.51.07c-.2,0-.38-.03-.53-.1s-.28-.16-.39-.27-.18-.25-.23-.4-.08-.31-.08-.47c0-.3.06-.56.18-.8s.28-.44.48-.61.43-.29.68-.38.52-.13.78-.13c.47,0,.89.1,1.24.31s.64.47.87.81.4.71.52,1.14.17.86.17,1.31Z"/>
  </g>
</svg>