<?xml version="1.0" encoding="UTF-8"?>
<svg id="Layer_1" xmlns="http://www.w3.org/2000/svg" version="1.1" viewBox="0 0 782 319">
  <!-- Generator: Adobe Illustrator 29.4.0, SVG Export Plug-In . SVG Version: 2.1.0 Build 152)  -->
  <defs>
    <style>
      .st0 {
        fill: #231f20;
      }
    </style>
  </defs>
  <g>
    <path class="st0" d="M288.46,112.84c4.72-1,14.16-2,23.25-2,10.98,0,17.7,1.29,23.6,5.43,5.55,3.58,9.44,10.15,9.44,19.02s-4.13,16.3-13.1,20.45v.29c9.09,2.86,15.82,11.3,15.82,23.6,0,8.87-3.3,15.73-8.26,20.59-5.78,5.58-15.46,8.72-31.28,8.72-8.85,0-15.46-.71-19.47-1.43v-94.68ZM306.28,149.74h5.9c9.56,0,14.52-4.72,14.52-11.87s-4.6-11.16-12.75-11.16c-4.01,0-6.26.29-7.67.57v22.45ZM306.28,192.5c1.77.29,3.89.29,6.96.29,8.14,0,15.34-3.86,15.34-14.02,0-9.58-7.2-13.44-16.17-13.44h-6.14v27.17Z"/>
    <path class="st0" d="M413.56,185.49c0,9.15.24,16.59.47,22.45h-15.58l-.83-9.87h-.35c-2.24,4.29-7.67,11.44-18.06,11.44-11.8,0-20.3-8.87-20.3-30.46v-41.05h17.94v37.61c0,10.15,2.72,16.3,9.09,16.3,4.96,0,7.91-4.15,8.97-7.58.47-1.29.71-2.86.71-4.72v-41.62h17.94v47.48Z"/>
    <path class="st0" d="M441.42,138.01l8.62,34.47c.94,4.01,2.12,9.3,2.83,13.01h.47c.71-3.86,1.65-9.01,2.48-13.16l7.2-34.32h19.12l-13.46,46.05c-8.26,27.89-13.81,38.9-20.3,45.91-6.14,6.58-12.75,9.01-17.23,9.58l-3.89-18.31c2.24-.57,5.07-1.86,7.79-3.72,2.71-1.72,5.78-5.29,7.44-8.72.59-1.14.94-2.29.94-3.15s-.12-1.86-.71-3.57l-21.24-64.07h19.95Z"/>
    <path class="st0" d="M532.18,111.56v37.04h29.62v-37.04h17.94v96.39h-17.94v-40.33h-29.62v40.33h-17.94v-96.39h17.94Z"/>
    <path class="st0" d="M608.31,179.92c.47,9.01,7.91,13.3,16.29,13.3,6.14,0,11.09-1,15.93-3l2.36,14.73c-5.9,3-13.1,4.43-20.89,4.43-19.59,0-30.8-13.73-30.8-35.61,0-17.73,9.09-37.33,29.15-37.33,18.65,0,25.73,17.59,25.73,34.9,0,3.72-.35,7.01-.59,8.58h-37.18ZM629.44,165.04c0-5.29-1.89-14.16-10.15-14.16-7.55,0-10.62,8.44-11.09,14.16h21.24Z"/>
    <path class="st0" d="M656.82,161.04c0-10.3-.12-17.02-.47-23.03h15.34l.71,12.87h.47c2.95-10.3,9.91-14.59,15.58-14.59,1.65,0,2.48.14,3.78.43v20.45c-1.42-.29-2.83-.57-4.84-.57-6.61,0-11.09,4.29-12.27,11.01-.24,1.43-.35,3.15-.35,4.86v35.47h-17.94v-46.91Z"/>
    <path class="st0" d="M714.54,179.92c.47,9.01,7.91,13.3,16.29,13.3,6.14,0,11.09-1,15.93-3l2.36,14.73c-5.9,3-13.1,4.43-20.89,4.43-19.59,0-30.8-13.73-30.8-35.61,0-17.73,9.09-37.33,29.15-37.33,18.65,0,25.73,17.59,25.73,34.9,0,3.72-.35,7.01-.59,8.58h-37.18ZM735.66,165.04c0-5.29-1.89-14.16-10.15-14.16-7.55,0-10.62,8.44-11.09,14.16h21.24Z"/>
  </g>
  <path class="st0" d="M245.35,95.3c-1.76-2.23-4.44-3.53-7.28-3.53H85.54l-5.67-28.46c-.86-4.34-4.67-7.46-9.09-7.46h-31.82c-5.12,0-9.27,4.15-9.27,9.27s4.15,9.27,9.27,9.27h24.21l5.2,26.08c-.01.19-.02.38-.02.57,0,1.46.34,2.85.94,4.08l16.55,83.09c-.04.05-.08.11-.12.16l.15.03h0s-10.69,34.79-10.69,34.79l-.99,3.22v.02s-1.63,5.3-1.63,5.3l-2.72,8.87s.07.07.1.1c-.6,2.2-.92,4.52-.92,6.91,0,14.57,11.85,26.42,26.42,26.42s26.42-11.85,26.42-26.42c0-3.72-.78-7.26-2.17-10.48h48.97c-1.39,3.21-2.17,6.76-2.17,10.48,0,14.57,11.85,26.42,26.42,26.42s26.42-11.85,26.42-26.42-11.85-26.42-26.42-26.42h-98l6.65-23.11h115.46c4.29,0,8.01-2.94,9.01-7.11l21.04-87.75c.66-2.76.02-5.67-1.74-7.9ZM192.92,255.87c-4.56,0-8.28-3.71-8.28-8.28s3.71-8.28,8.28-8.28,8.28,3.71,8.28,8.28-3.71,8.28-8.28,8.28ZM95.45,255.87c-4.56,0-8.28-3.71-8.28-8.28s3.71-8.28,8.28-8.28,8.28,3.71,8.28,8.28-3.71,8.28-8.28,8.28ZM209.73,179.52h-106.71l-13.79-69.21h137.09l-16.6,69.21Z"/>
</svg>