<?xml version="1.0" encoding="UTF-8"?><svg id="Layer_1" xmlns="http://www.w3.org/2000/svg" viewBox="0 0 134.5 55.53"><defs><style>.cls-1{fill:#231f20;}</style></defs><path class="cls-1" d="M82.71,16.33c-.24-8.02-6.93-14.36-14.92-14.12-8.01.24-14.34,6.96-14.1,14.98.24,8.02,6.95,14.36,14.96,14.12,7.99-.24,14.3-6.96,14.06-14.98ZM75.11,26.18v.31s-.31-.09-.31-.09c0,0-.86-.27-1.95-.7.09-.22.16-.44.2-.68.02-.13.02-.26.02-.39.56.16,1.17.17,1.75.02.09-.02.17-.06.25-.09.04.94.03,1.62.03,1.62ZM78.23,19.27c.05.12.1.25.13.38.32,1.24-.43,2.54-1.72,2.96l-.1.03-.04.09c-.19.41-.51.77-.9,1.05-.28.19-.58.34-.91.42-.54.14-1.11.13-1.62-.05-.05-.5-.2-.99-.46-1.42.3-.7.36-1.49.15-2.24-.14-.55-.41-1.04-.8-1.46-.49-.53-1.11-.89-1.81-1.04l-.28-.13h0c-.06-.03-.13-.05-.2-.08l-.04-.02c-.07-.02-.13-.04-.2-.06l-.05-.02c-.06-.02-.12-.03-.18-.05-.02,0-.04-.01-.05-.02-.05-.01-.1-.02-.14-.03.09-.25.19-.49.32-.72.17-.32.37-.62.6-.89l.24-.26v-.02c.32-.54.79-.97,1.36-1.23.4-.18.82-.27,1.26-.27.05,0,.1,0,.15,0,.7.04,1.37.32,1.88.8l.09.09.13-.03c.25-.06.5-.09.75-.09h0c.27,0,.54.04.8.11.19.05.38.13.55.21.55.28.97.72,1.22,1.27.14.3.21.61.24.93.04.54-.09,1.09-.36,1.58l-.06.1.05.11ZM79.1,13.27l.3.1-.18.26s-.52.73-1.27,1.63c-.18-.15-.37-.29-.59-.4-.11-.06-.24-.09-.36-.14.33-.49.52-1.05.56-1.66,0-.09,0-.18,0-.27.91.25,1.55.47,1.55.47ZM71.26,7.17c.22,0,.43.03.64.08.52.13,1.01.42,1.38.83l.08.09.12-.02c.13-.02.26-.02.4,0,1.28.07,2.28,1.19,2.29,2.55v.1l.08.07c.33.31.58.72.72,1.18.1.32.14.66.12,1-.03.56-.22,1.09-.54,1.53-.49-.11-1-.11-1.5,0-.58-.5-1.31-.8-2.08-.84-.57-.03-1.12.08-1.63.31-.65.3-1.19.78-1.55,1.4l-.21.23h0c-.2.24-.37.49-.53.74-.21-.16-.4-.34-.58-.52-.25-.26-.47-.55-.66-.85l-.18-.31-.02-.02c-.42-.47-.68-1.04-.75-1.66-.06-.48,0-.96.18-1.42.25-.66.73-1.21,1.34-1.54l.11-.06v-.13c.04-.53.21-1.04.51-1.48.11-.17.23-.32.37-.46.44-.43.99-.7,1.58-.77.1-.01.21-.02.31-.02ZM68.05,5.48l.19-.26.19.25s.54.72,1.16,1.71c-.2.13-.39.26-.56.44-.09.09-.16.2-.24.3-.36-.46-.84-.82-1.4-1.04-.08-.03-.17-.05-.26-.08.52-.79.92-1.32.92-1.32ZM59.75,11.36c.07-.32.19-.62.36-.89.29-.46.71-.82,1.22-1.06l.11-.05.02-.12c.03-.13.06-.26.11-.38.36-.93,1.27-1.52,2.31-1.52.28,0,.55.04.82.13l.1.03.09-.05c.38-.21.83-.32,1.29-.32.02,0,.04,0,.06,0,.34,0,.67.07.98.19.52.2.97.54,1.29.99-.25.43-.41.92-.47,1.42-.65.39-1.16,1-1.44,1.72-.2.53-.27,1.09-.21,1.65.08.71.38,1.37.85,1.9l.15.27h0c.16.26.34.51.54.74-.22.15-.44.28-.68.39-.32.15-.67.28-1.02.37l-.35.07h-.02c-.39.19-.8.27-1.23.27-.19,0-.39-.02-.59-.06-.48-.1-.92-.3-1.3-.61-.55-.45-.92-1.07-1.05-1.75l-.02-.13-.12-.05c-.49-.2-.93-.52-1.25-.93-.12-.15-.23-.32-.32-.49-.28-.55-.36-1.15-.25-1.74ZM57.05,13.32l.3-.1s.85-.29,1.99-.58c.06.23.13.45.24.67.06.11.14.22.21.32-.55.2-1.04.55-1.43,1.01-.06.07-.1.15-.15.23-.59-.74-.98-1.29-.98-1.29l-.18-.26ZM59.52,22.67c-.35-.42-.57-.93-.63-1.49v-.12s-.12-.06-.12-.06c-.11-.07-.22-.14-.33-.22-.99-.81-1.15-2.31-.36-3.4l.06-.08-.02-.1c-.08-.45-.05-.92.11-1.38.11-.32.28-.61.49-.88.36-.44.82-.75,1.34-.92.33.38.75.68,1.21.88.17.74.59,1.41,1.19,1.9.44.36.95.59,1.5.71.23.04.45.07.68.07.48,0,.95-.1,1.4-.29l.3-.06h0c.29-.08.58-.17.86-.29.09.3.15.61.18.91,0,.03,0,.06,0,.09,0,.04,0,.08.01.12,0,.03,0,.06,0,.09,0,.05,0,.09,0,.14h0v.06c0,.06,0,.12,0,.19,0,.02,0,.03,0,.05,0,.07,0,.14,0,.19l-.04.35v.02c.07.63-.06,1.24-.36,1.79-.24.43-.57.78-.98,1.05-.49.32-1.05.48-1.63.48-.12,0-.24,0-.36-.02l-.13-.02-.08.1s-.07.08-.12.14c-.01.01-.02.02-.03.03-.04.04-.08.08-.12.11h-.01c-.04.05-.09.09-.14.13l-.02.02s-.09.07-.14.1h0c-.05.04-.1.08-.15.11h-.02c-.05.04-.11.07-.16.1-.12.06-.23.11-.35.15-.19.07-.38.12-.57.15-.15.02-.3.03-.44.03-.46,0-.9-.11-1.29-.34-.28-.16-.53-.36-.74-.61ZM61.59,26.38l-.3.09v-.31s-.02-.9.06-2.07c.24.02.47.02.71-.02.12-.02.25-.06.37-.1.02.58.2,1.16.52,1.67.05.08.11.14.17.21-.88.33-1.53.53-1.53.53ZM65.47,26.74l-.06-.08h-.1c-.45-.07-.9-.25-1.28-.54-.27-.2-.5-.45-.68-.74-.31-.47-.46-1.01-.46-1.56.08-.03.16-.07.24-.11.07-.03.13-.07.19-.11h0c.06-.04.12-.08.18-.12h.02c.05-.05.1-.08.16-.13l.03-.02c.06-.05.11-.09.16-.14l.02-.02s.09-.08.13-.13c.01,0,.03-.03.04-.04.02-.02.04-.04.06-.06.1,0,.19.01.29.01.67,0,1.32-.19,1.88-.56.47-.31.86-.72,1.14-1.21.35-.62.5-1.33.43-2.04l.03-.31h0c0-.08,0-.15.01-.23v-.05c0-.07,0-.13,0-.2v-.06h0c0-.06,0-.11,0-.16,0-.03,0-.07,0-.1,0-.04,0-.08,0-.12h.01c.12,0,.25.01.37.03h.06c.06.01.11.02.17.03.03,0,.06,0,.09.01.03,0,.06,0,.09.02h0s.1.02.14.03c.02,0,.05,0,.07.02.05.01.1.02.15.04.02,0,.03,0,.05.01.05.01.11.03.16.04h.05c.06.03.12.05.18.07l.04.02c.07.03.13.05.19.07l.32.14h.03c.61.14,1.16.45,1.59.91.33.36.56.78.69,1.26.18.68.12,1.4-.18,2.03l-.06.12.07.11c.28.45.44.96.47,1.49,0,.2,0,.4-.03.59-.1.61-.38,1.15-.83,1.56-.24.22-.51.39-.81.51-.33.13-.68.2-1.04.2-.19,0-.38-.02-.57-.06l-.12-.03-.09.08c-.1.09-.2.17-.31.24-.38.24-.81.37-1.27.37-.81,0-1.59-.41-2.08-1.08Z"/><path class="cls-1" d="M11.87,49.17h-2.04l-.41-2.61h-2.58l-.41,2.61h-2.03v-.04l2.66-13.74h2.16l2.65,13.78ZM9.12,44.79l-1-6.21-1.01,6.21h2.01Z"/><path class="cls-1" d="M21.34,49.17h-1.98v-6.79c0-.36.04-.86.12-1.5l-1.78,7.03h-1.05l-1.79-7.03c.08.65.12,1.15.12,1.5v6.79h-1.98v-13.76h1.94l2.16,7.61c.02.08.04.29.05.62,0-.15.02-.35.05-.62l2.16-7.61h1.94v13.76Z"/><path class="cls-1" d="M29.95,49.17h-2.04l-.41-2.61h-2.58l-.41,2.61h-2.03v-.04l2.66-13.74h2.16l2.65,13.78ZM27.21,44.79l-1-6.21-1.01,6.21h2.01Z"/><path class="cls-1" d="M38.08,49.17h-1.8l-3.3-8.66c.09.42.13.75.13.99v7.67h-2v-13.76h1.8l3.3,8.49c-.09-.42-.13-.75-.13-.99v-7.49h2v13.76Z"/><path class="cls-1" d="M46.7,49.17h-2.04l-.41-2.61h-2.58l-.41,2.61h-2.03v-.04l2.66-13.74h2.16l2.65,13.78ZM43.96,44.79l-1-6.21-1.01,6.21h2.01Z"/><path class="cls-1" d="M53.84,37.23h-2.27v11.94h-2.05v-11.94h-2.27v-1.82h6.59v1.82Z"/><path class="cls-1" d="M65.19,47.91c0,.84-.42,1.26-1.25,1.26h-4.14c-.83,0-1.24-.42-1.24-1.26v-3.28h2.06v2.81h2.51v-2.7l-4.12-3.9c-.3-.29-.45-.65-.45-1.1v-3.06c0-.84.41-1.27,1.24-1.27h4.14c.83,0,1.25.42,1.25,1.25v3.08h-2.06v-2.59h-2.51v2.49l4.12,3.89c.3.28.45.65.45,1.12v3.28Z"/><path class="cls-1" d="M73.74,49.17h-2.07v-6.17h-2.79v6.17h-2.06v-13.76h2.06v5.67h2.79v-5.67h2.07v13.76Z"/><path class="cls-1" d="M82.35,49.17h-2.04l-.41-2.61h-2.58l-.41,2.61h-2.03v-.04l2.66-13.74h2.16l2.65,13.78ZM79.61,44.79l-1-6.21-1.01,6.21h2.01Z"/><path class="cls-1" d="M90.42,49.17h-2.07v-6.17h-2.79v6.17h-2.06v-13.76h2.06v5.67h2.79v-5.67h2.07v13.76Z"/><path class="cls-1" d="M101.18,49.17h-5.41v-13.76h2.06v11.92h3.35v1.84Z"/><path class="cls-1" d="M109.28,47.91c0,.84-.42,1.26-1.27,1.26h-4.37c-.83,0-1.25-.42-1.25-1.26v-12.5h2.06v11.99h2.77v-11.99h2.06v12.5Z"/><path class="cls-1" d="M117.91,49.17h-1.8l-3.3-8.66c.09.42.13.75.13.99v7.67h-2.01v-13.76h1.8l3.3,8.49c-.09-.42-.13-.75-.13-.99v-7.49h2v13.76Z"/><path class="cls-1" d="M126.37,47.91c0,.84-.42,1.26-1.26,1.26h-4.33c-.82,0-1.22-.42-1.22-1.26v-11.24c0-.84.42-1.27,1.25-1.27h4.3c.84,0,1.26.42,1.26,1.27v2.94h-2.07v-2.44h-2.68v10.23h2.68v-3.85h-1.53v-1.75h3.6v6.11Z"/><path class="cls-1" d="M130.1,49.17h-2.06v-13.76h2.06v13.76Z"/></svg>