<?xml version="1.0" encoding="UTF-8"?><svg id="Layer_1" xmlns="http://www.w3.org/2000/svg" viewBox="0 0 134.5 55.53"><defs><style>.cls-1,.cls-2{fill:#fff;}.cls-2{stroke:#fff;stroke-miterlimit:10;stroke-width:.2px;}</style></defs><path class="cls-2" d="M62.92,39.95c-.36-.51-.82-.93-1.36-1.25-.54-.32-1.17-.48-1.88-.48-.46,0-.9.07-1.29.21-.39.14-.74.33-1.02.57-.29.24-.52.53-.7.86-.18.33-.27.69-.27,1.06,0,.28.04.58.13.88.08.3.22.63.4.96l.1.18,1.38-.79-.11-.18c-.1-.17-.17-.31-.21-.43-.04-.11-.06-.21-.06-.31,0-.2.04-.38.13-.55.09-.18.21-.32.37-.44.16-.13.33-.22.52-.29.2-.07.4-.1.61-.1.43,0,.81.1,1.14.31.33.21.62.49.85.84.23.35.41.76.53,1.21.12.46.19.92.19,1.38s-.07.94-.19,1.38c-.13.44-.32.84-.58,1.19-.25.34-.58.62-.98.83-.4.2-.87.31-1.41.31s-1.06-.1-1.47-.31c-.42-.21-.79-.5-1.09-.86-.31-.37-.58-.81-.8-1.29-.22-.49-.42-1.03-.58-1.6-.16-.56-.3-1.15-.42-1.76-.12-.61-.23-1.2-.33-1.77l-.14-.86-1.66.26.04.21c.12.71.27,1.49.45,2.3.18.8.37,1.55.58,2.23.2.68.45,1.33.74,1.93.3.62.67,1.16,1.11,1.63.44.47.98.84,1.6,1.12.61.27,1.34.41,2.17.41.75,0,1.43-.16,2.01-.46.57-.31,1.06-.72,1.45-1.22.38-.5.67-1.07.87-1.71.19-.63.29-1.29.29-1.95s-.09-1.3-.28-1.93c-.19-.63-.46-1.21-.82-1.72Z"/><path class="cls-2" d="M50.85,36.19h-12.08v-1.97h-1.63v2.94s-.04-.04-.06-.07c-.12-.14-.23-.26-.33-.36-.1-.1-.21-.2-.32-.28-.11-.08-.22-.16-.34-.23l-.05-.03h-13.76v-1.97h-1.63v2.94s-.04-.04-.06-.07c-.12-.14-.23-.26-.34-.36-.11-.11-.22-.2-.32-.28-.11-.08-.22-.16-.34-.23l-.05-.03H3.34v1.63h12.65v6.68l-1.06-1.53c.01-.09.02-.17.04-.24.02-.11.03-.23.03-.35,0-.48-.11-.97-.33-1.46-.21-.48-.5-.92-.85-1.31-.35-.39-.77-.71-1.23-.96-.47-.25-.96-.38-1.45-.38-1.42,0-2.31.86-2.65,2.56l-.04.2,1.5.36.05-.2c.12-.45.28-.79.48-.99.19-.19.4-.28.65-.28.29,0,.57.07.84.23.27.16.52.37.72.62.21.26.38.55.5.85.12.3.18.6.18.87,0,.31-.05.61-.16.89-.1.27-.24.52-.43.73-.18.21-.4.38-.65.5-.25.13-.52.19-.81.19-.46,0-.88-.1-1.27-.29-.4-.2-.77-.46-1.11-.78-.34-.33-.66-.71-.93-1.15-.29-.46-.54-.93-.76-1.41-.22-.48-.41-.98-.56-1.49-.16-.55-.29-1.03-.38-1.46l-.05-.22-1.63.51.05.19c.14.6.31,1.22.5,1.83.2.61.44,1.21.71,1.78.28.57.6,1.11.96,1.61.36.5.77.93,1.23,1.3.46.37.97.66,1.51.88.55.22,1.17.33,1.84.33,1.03,0,1.97-.53,2.8-1.58l1.76,2.68v2.33h1.61v-12.02h1.47c.37.12.69.32.95.59.26.28.48.61.63.99v10.43h1.63v-12.02h2.68v.75l.16.04c.65.15,1.19.29,1.61.43.41.13.75.27,1,.41.24.14.43.29.56.47.09.12.18.27.25.43-2.13.51-3.2,1.88-3.2,4.07,0,.34.07.71.21,1.11.14.4.34.77.59,1.12.25.34.54.64.87.87.34.24.72.36,1.11.36h.21l.73-1.39-.27-.05c-1.24-.25-1.84-.93-1.84-2.08,0-.78.23-1.38.67-1.79.45-.41,1.08-.62,1.86-.62.15,0,.31.06.5.19.21.14.43.32.65.54.23.22.45.47.66.74.21.27.4.55.57.82.17.28.29.53.39.77.09.23.13.41.13.55v4.3h1.63v-12.02h1.54c.37.12.69.32.95.59.27.28.48.61.63.99v10.43h1.63v-12.02h9.73v3.82c-.33-.51-.72-.91-1.16-1.19-.63-.41-1.36-.62-2.17-.62-.56,0-1.07.13-1.53.38-.44.25-.83.57-1.16.96-.33.4-.58.85-.74,1.34-.17.5-.26.99-.26,1.48,0,.52.1,1.02.31,1.48.21.48.55.88,1.01,1.2l.16.11,1.02-1.23-.15-.13c-.26-.23-.44-.5-.55-.77-.11-.29-.17-.58-.17-.86s.06-.58.16-.87c.1-.28.26-.53.47-.75.2-.21.45-.39.73-.52.28-.13.59-.19.93-.19.38,0,.73.11,1.06.35.35.25.66.56.93.92.28.37.51.78.71,1.2.19.42.32.8.4,1.16v4.75h1.64v-12.02h16.07v-1.63h-15.36ZM32.4,37.81v4.38c-.25-.36-.52-.67-.79-.93-.4-.38-.83-.65-1.28-.82-.15-.39-.3-.74-.47-1.04-.18-.33-.41-.62-.68-.87-.26-.24-.56-.45-.91-.63-.06-.03-.12-.06-.18-.09h4.31Z"/><path class="cls-2" d="M96.87,47.41c-.9-.72-1.94-1.42-3.11-2.08,2.16-.82,3.26-2.13,3.26-3.87,0-.48-.13-.95-.4-1.4-.26-.44-.59-.84-.97-1.17-.39-.33-.82-.61-1.29-.81-.29-.12-.58-.21-.86-.26h5.24v-1.63h-12.63v-1.97h-1.63v2.94s-.04-.04-.06-.07c-.12-.14-.23-.26-.34-.36-.11-.11-.22-.2-.32-.28-.11-.08-.22-.16-.34-.23l-.05-.03h-2.01v-1.97h-1.64v4.04c-.08-.1-.15-.21-.22-.31-.18-.26-.38-.5-.59-.7-.21-.2-.45-.38-.71-.52-.26-.14-.58-.23-.95-.27-.68,0-1.25.21-1.69.62-.3.28-.55.65-.74,1.12-.09-.22-.2-.43-.33-.61-.25-.35-.56-.63-.94-.85-.36-.21-.77-.35-1.2-.43-.42-.08-.88-.12-1.35-.12h-.49c-.17,0-.35.01-.52.04l-.18.03v1.8l.27-.09c.65-.22,1.37-.18,1.98.02.34.11.63.27.89.48.25.21.45.46.6.75.14.28.22.62.22.99,0,.14-.02.3-.07.45-.05.16-.12.3-.21.42-.09.13-.2.24-.32.35-.1.08-.21.14-.33.16-.18,0-.32-.04-.44-.11-.14-.08-.26-.17-.35-.27l-.18-.18-.84,1.32.11.12c.27.28.54.48.82.59.5.21,1.04.24,1.56.05.22-.08.44-.2.64-.34.2-.14.4-.32.58-.52.1-.11.19-.24.27-.37.25.36.53.64.85.82.41.23.87.35,1.37.35.23,0,.47-.04.72-.1.26-.07.51-.2.79-.39l.16-.11-.79-1.39-.19.14c-.34.26-.73.28-1.09.13-.15-.06-.29-.15-.41-.25-.12-.11-.21-.23-.28-.36-.06-.14-.1-.29-.1-.44,0-.77.11-1.35.34-1.7.21-.33.47-.48.79-.48.17,0,.34.05.52.16.2.12.4.29.6.48.2.2.38.43.55.68.17.25.33.51.46.76.13.23.24.46.31.68.07.2.1.36.1.46v8.52h1.64v-12.02h1.54c.37.12.69.32.95.59.26.28.48.62.63,1v10.43h1.63v-12.02h6.35c-.23.04-.47.11-.71.2-.43.17-.82.39-1.18.66-.36.28-.67.59-.91.94-.26.37-.39.76-.39,1.17,0,.98.42,1.73,1.24,2.23l.16.1.97-1.31-.15-.13c-.18-.16-.33-.32-.45-.47-.09-.12-.13-.24-.13-.36,0-.2.06-.39.17-.57.12-.19.28-.35.47-.47.19-.13.41-.23.66-.31.5-.16.94-.17,1.49.07.29.13.57.29.82.49.25.2.46.42.62.68.15.24.23.48.23.71,0,.34-.08.66-.24.96-.16.3-.39.58-.66.81-.28.23-.61.42-.98.56-.36.14-.76.21-1.17.21-.89,0-1.91-.23-3.02-.67l-.28-.11v1.7l.14.05c1.71.56,3.33,1.36,4.82,2.35,1.49,1,2.92,2.25,4.25,3.72l.14.15,1.2-1.06-.12-.15c-.71-.9-1.58-1.76-2.58-2.56Z"/><polygon class="cls-2" points="93.04 50.66 97.41 53.85 98.36 52.57 94.11 49.41 93.04 50.66"/><path class="cls-2" d="M112.73,49.39c-.3-.14-.57-.24-.8-.32-.3-.1-.53-.15-.71-.15-.33,0-.64.05-.94.15-.3.1-.56.25-.8.44-.23.19-.41.41-.56.66-.15.26-.22.55-.22.85,0,.28.04.55.13.81.09.26.23.49.41.68.17.19.38.34.62.46.24.12.51.18.8.18.5,0,1-.09,1.48-.28.45-.17.89-.51,1.32-1,.99.71,1.92,1.7,2.76,2.95l.12.18,1.28-1-.15-.19c-.22-.29-.42-.55-.58-.77-.18-.24-.34-.44-.48-.62-.15-.18-.29-.35-.44-.5-.14-.16-.31-.31-.48-.47-.18-.16-.38-.33-.59-.5l-.12-.1c-.16-.13-.34-.27-.53-.43.02-.15.05-.27.06-.36.02-.12.02-.2.03-.24h.02v-12.02h3.03v12.02h1.63v-12.02h3.83c.16.23.27.43.35.6-.18.04-.37.1-.54.18-.25.12-.48.26-.68.44-.2.18-.36.4-.48.64-.12.25-.18.52-.18.79,0,.23.05.47.15.71.1.23.23.45.4.63.17.18.36.34.58.46.36.2.78.25,1.15.1.13-.05.25-.12.37-.2.11-.08.21-.17.3-.26.09-.09.17-.19.25-.29l.09-.13-.87-1.14-.13.35c-.04.11-.11.2-.21.27-.09.06-.19.07-.26.05-.08-.03-.13-.06-.17-.1-.06-.06-.1-.11-.13-.16-.03-.05-.05-.09-.05-.14,0-.06-.02-.11-.02-.16,0-.09.03-.17.09-.24.08-.09.17-.16.28-.22.13-.06.27-.11.42-.15.16-.04.29-.06.41-.06.28.01.53.07.76.18.24.11.44.26.61.43.17.17.3.37.4.6.09.22.14.44.14.65v.69c-.09.16-.2.35-.33.55-.15.23-.32.45-.52.66-.19.21-.41.4-.64.57-.21.15-.44.27-.67.34-.06,0-.13-.04-.2-.09-.09-.07-.16-.19-.21-.34l-.25-1.09-1.48.55.03.18c.1.48.22.88.36,1.2.14.32.31.57.5.76.19.19.39.33.61.41.36.13.78.18,1.26.02.19-.06.39-.16.6-.28.21-.13.44-.29.66-.5.22-.19.46-.43.74-.74l.8-.97c.14-.17.29-.34.44-.51.15-.17.29-.33.45-.49.16-.16.32-.32.48-.47.16-.15.33-.31.52-.47.09-.08.18-.16.27-.23-.16.27-.29.52-.39.75-.09.2-.18.4-.25.61-.07.2-.14.38-.19.56-.12.35-.2.69-.26,1.02-.05.32-.08.63-.08.93,0,.32.02.66.05,1,.04.35.1.71.18,1.08.08.37.19.78.33,1.21.14.44.31.91.49,1.39l.08.21,1.47-.68-.1-.19c-.33-.66-.58-1.34-.74-2.03-.16-.68-.21-1.31-.16-1.88.02-.21.05-.41.08-.59.03-.17.07-.35.12-.53.06-.18.12-.37.19-.56.07-.18.15-.38.26-.63.19-.44.44-.9.72-1.35.29-.46.61-.9.94-1.31l.13-.16-1.78-1.41-.12.06c-.62.31-1.21.67-1.76,1.05-.44.32-.88.68-1.29,1.08-.05-.24-.13-.48-.22-.7-.15-.34-.36-.65-.61-.93-.25-.28-.54-.5-.85-.67-.28-.16-.59-.26-.9-.31-.02-.05-.05-.1-.07-.15-.02-.04-.04-.1-.05-.23v-.05s-.03-.05-.04-.1c0-.02,0-.03,0-.04h1c.41.59.84,1.03,1.29,1.34.49.32,1.03.49,1.61.49.22,0,.43-.05.61-.15.18-.09.34-.22.47-.36.13-.14.24-.32.32-.52.08-.2.12-.41.14-.66,0-.05,0-.1-.01-.14h2.42v-1.63h-13.57c-.33-.38-.58-.66-.78-.85-.17-.17-.25-.25-.28-.29.05-.34.18-.67.39-.98.23-.34.52-.65.85-.9.33-.26.69-.46,1.09-.61.39-.15.78-.22,1.16-.22,1.05,0,2.13.27,3.21.79,1.09.53,2.22,1.35,3.36,2.43l.15.15,1.11-1.21-.16-.14c-.73-.63-1.36-1.14-1.94-1.55-.58-.42-1.11-.76-1.58-1.01-1.36-.73-2.77-1.1-4.19-1.1-.6,0-1.19.11-1.75.34-.56.22-1.08.53-1.55.91-.47.39-.87.84-1.18,1.35-.33.52-.53,1.08-.62,1.67v.08s.8,1.13.8,1.13h-14.14v1.63h10.01v2.19c-.14-.17-.29-.32-.45-.44-.19-.14-.39-.25-.6-.33-.56-.2-1.13-.15-1.69.22-.24.16-.43.37-.57.64-.57-.71-1.31-1.08-2.21-1.1-.55,0-1.03.11-1.45.32-.41.21-.75.5-1.02.85-.26.34-.47.74-.6,1.17-.13.43-.2.88-.2,1.33s.06.91.19,1.34c.13.43.33.82.61,1.17.27.34.62.62,1.03.83.41.21.9.31,1.45.31h.22l.58-1.64-.39.11s-.05,0-.08,0h-.16c-.3,0-.57-.06-.79-.18-.23-.12-.42-.28-.57-.47-.15-.2-.27-.42-.35-.68-.08-.26-.12-.53-.12-.8,0-.25.04-.49.11-.75.08-.25.19-.47.33-.66.14-.18.32-.34.53-.45.21-.11.47-.17.76-.17.24,0,.46.05.66.15.21.1.38.24.54.41.14.16.26.41.34.75.09.34.13.66.13.92v.25l1.27-.24.23-.06-.07-.22s-.02-.09-.03-.45c0-.27,0-.5.02-.66.02-.14.06-.27.13-.38.07-.11.15-.21.24-.29.07-.06.16-.09.26-.09.04,0,.16.01.39.11.17.07.35.21.53.4.18.2.33.43.45.69.11.25.23.64.36,1.15v5.04l-.02,1.26ZM128.53,38.04s-.01.09-.03.13c-.02.04-.05.08-.07.12-.04.04-.08.07-.11.08-.03.02-.06.02-.09.02-.25,0-.47-.07-.68-.22-.13-.1-.26-.22-.39-.36h1.33c.03.06.04.14.04.23ZM111.42,51.46c-.12.04-.23.06-.33.06-.25,0-.46-.04-.6-.13-.11-.07-.16-.16-.16-.31,0-.1.02-.18.06-.23.05-.07.11-.12.19-.16.08-.05.18-.08.29-.1.11-.02.22-.03.31-.03.19,0,.38.03.57.1.14.04.27.11.39.2-.03.07-.07.13-.12.19-.09.11-.17.19-.28.26-.1.07-.21.12-.32.16Z"/><path class="cls-1" d="M82.71,16.33c-.24-8.02-6.93-14.36-14.92-14.12-8.01.24-14.34,6.96-14.1,14.98.24,8.02,6.95,14.36,14.96,14.12,7.99-.24,14.3-6.96,14.06-14.98ZM75.11,26.18v.31s-.31-.09-.31-.09c0,0-.86-.27-1.95-.7.09-.22.16-.44.2-.68.02-.13.02-.26.02-.39.56.16,1.17.17,1.75.02.09-.02.17-.06.25-.09.04.94.03,1.62.03,1.62ZM78.23,19.27c.05.12.1.25.13.38.32,1.24-.43,2.54-1.72,2.96l-.1.03-.04.09c-.19.41-.51.77-.9,1.05-.28.19-.58.34-.91.42-.54.14-1.11.13-1.62-.05-.05-.5-.2-.99-.46-1.42.3-.7.36-1.49.15-2.24-.14-.55-.41-1.04-.8-1.46-.49-.53-1.11-.89-1.81-1.04l-.28-.13h0c-.06-.03-.13-.05-.2-.08l-.04-.02c-.07-.02-.13-.04-.2-.06l-.05-.02c-.06-.02-.12-.03-.18-.05-.02,0-.04-.01-.05-.02-.05-.01-.1-.02-.14-.03.09-.25.19-.49.32-.72.17-.32.37-.62.6-.89l.24-.26v-.02c.32-.54.79-.97,1.36-1.23.4-.18.82-.27,1.26-.27.05,0,.1,0,.15,0,.7.04,1.37.32,1.88.8l.09.09.13-.03c.25-.06.5-.09.75-.09h0c.27,0,.54.04.8.11.19.05.38.13.55.21.55.28.97.72,1.22,1.27.14.3.21.61.24.93.04.54-.09,1.09-.36,1.58l-.06.1.05.11ZM79.1,13.27l.3.1-.18.26s-.52.73-1.27,1.63c-.18-.15-.37-.29-.59-.4-.11-.06-.24-.09-.36-.14.33-.49.52-1.05.56-1.66,0-.09,0-.18,0-.27.91.25,1.55.47,1.55.47ZM71.26,7.17c.22,0,.43.03.64.08.52.13,1.01.42,1.38.83l.08.09.12-.02c.13-.02.26-.02.4,0,1.28.07,2.28,1.19,2.29,2.55v.1l.08.07c.33.31.58.72.72,1.18.1.32.14.66.12,1-.03.56-.22,1.09-.54,1.53-.49-.11-1-.11-1.5,0-.58-.5-1.31-.8-2.08-.84-.57-.03-1.12.08-1.63.31-.65.3-1.19.78-1.55,1.4l-.21.23h0c-.2.24-.37.49-.53.74-.21-.16-.4-.34-.58-.52-.25-.26-.47-.55-.66-.85l-.18-.31-.02-.02c-.42-.47-.68-1.04-.75-1.66-.06-.48,0-.96.18-1.42.25-.66.73-1.21,1.34-1.54l.11-.06v-.13c.04-.53.21-1.04.51-1.48.11-.17.23-.32.37-.46.44-.43.99-.7,1.58-.77.1-.01.21-.02.31-.02ZM68.05,5.48l.19-.26.19.25s.54.72,1.16,1.71c-.2.13-.39.26-.56.44-.09.09-.16.2-.24.3-.36-.46-.84-.82-1.4-1.04-.08-.03-.17-.05-.26-.08.52-.79.92-1.32.92-1.32ZM59.75,11.36c.07-.32.19-.62.36-.89.29-.46.71-.82,1.22-1.06l.11-.05.02-.12c.03-.13.06-.26.11-.38.36-.93,1.27-1.52,2.31-1.52.28,0,.55.04.82.13l.1.03.09-.05c.38-.21.83-.32,1.29-.32.02,0,.04,0,.06,0,.34,0,.67.07.98.19.52.2.97.54,1.29.99-.25.43-.41.92-.47,1.42-.65.39-1.16,1-1.44,1.72-.2.53-.27,1.09-.21,1.65.08.71.38,1.37.85,1.9l.15.27h0c.16.26.34.51.54.74-.22.15-.44.28-.68.39-.32.15-.67.28-1.02.37l-.35.07h-.02c-.39.19-.8.27-1.23.27-.19,0-.39-.02-.59-.06-.48-.1-.92-.3-1.3-.61-.55-.45-.92-1.07-1.05-1.75l-.02-.13-.12-.05c-.49-.2-.93-.52-1.25-.93-.12-.15-.23-.32-.32-.49-.28-.55-.36-1.15-.25-1.74ZM57.05,13.32l.3-.1s.85-.29,1.99-.58c.06.23.13.45.24.67.06.11.14.22.21.32-.55.2-1.04.55-1.43,1.01-.06.07-.1.15-.15.23-.59-.74-.98-1.29-.98-1.29l-.18-.26ZM59.52,22.67c-.35-.42-.57-.93-.63-1.49v-.12s-.12-.06-.12-.06c-.11-.07-.22-.14-.33-.22-.99-.81-1.15-2.31-.36-3.4l.06-.08-.02-.1c-.08-.45-.05-.92.11-1.38.11-.32.28-.61.49-.88.36-.44.82-.75,1.34-.92.33.38.75.68,1.21.88.17.74.59,1.41,1.19,1.9.44.36.95.59,1.5.71.23.04.45.07.68.07.48,0,.95-.1,1.4-.29l.3-.06h0c.29-.08.58-.17.86-.29.09.3.15.61.18.91,0,.03,0,.06,0,.09,0,.04,0,.08.01.12,0,.03,0,.06,0,.09,0,.05,0,.09,0,.14h0v.06c0,.06,0,.12,0,.19,0,.02,0,.03,0,.05,0,.07,0,.14,0,.19l-.04.35v.02c.07.63-.06,1.24-.36,1.79-.24.43-.57.78-.98,1.05-.49.32-1.05.48-1.63.48-.12,0-.24,0-.36-.02l-.13-.02-.08.1s-.07.08-.12.14c-.01.01-.02.02-.03.03-.04.04-.08.08-.12.11h-.01c-.04.05-.09.09-.14.13l-.02.02s-.09.07-.14.1h0c-.05.04-.1.08-.15.11h-.02c-.05.04-.11.07-.16.1-.12.06-.23.11-.35.15-.19.07-.38.12-.57.15-.15.02-.3.03-.44.03-.46,0-.9-.11-1.29-.34-.28-.16-.53-.36-.74-.61ZM61.59,26.38l-.3.09v-.31s-.02-.9.06-2.07c.24.02.47.02.71-.02.12-.02.25-.06.37-.1.02.58.2,1.16.52,1.67.05.08.11.14.17.21-.88.33-1.53.53-1.53.53ZM65.47,26.74l-.06-.08h-.1c-.45-.07-.9-.25-1.28-.54-.27-.2-.5-.45-.68-.74-.31-.47-.46-1.01-.46-1.56.08-.03.16-.07.24-.11.07-.03.13-.07.19-.11h0c.06-.04.12-.08.18-.12h.02c.05-.05.1-.08.16-.13l.03-.02c.06-.05.11-.09.16-.14l.02-.02s.09-.08.13-.13c.01,0,.03-.03.04-.04.02-.02.04-.04.06-.06.1,0,.19.01.29.01.67,0,1.32-.19,1.88-.56.47-.31.86-.72,1.14-1.21.35-.62.5-1.33.43-2.04l.03-.31h0c0-.08,0-.15.01-.23v-.05c0-.07,0-.13,0-.2v-.06h0c0-.06,0-.11,0-.16,0-.03,0-.07,0-.1,0-.04,0-.08,0-.12h.01c.12,0,.25.01.37.03h.06c.06.01.11.02.17.03.03,0,.06,0,.09.01.03,0,.06,0,.09.02h0s.1.02.14.03c.02,0,.05,0,.07.02.05.01.1.02.15.04.02,0,.03,0,.05.01.05.01.11.03.16.04h.05c.06.03.12.05.18.07l.04.02c.07.03.13.05.19.07l.32.14h.03c.61.14,1.16.45,1.59.91.33.36.56.78.69,1.26.18.68.12,1.4-.18,2.03l-.06.12.07.11c.28.45.44.96.47,1.49,0,.2,0,.4-.03.59-.1.61-.38,1.15-.83,1.56-.24.22-.51.39-.81.51-.33.13-.68.2-1.04.2-.19,0-.38-.02-.57-.06l-.12-.03-.09.08c-.1.09-.2.17-.31.24-.38.24-.81.37-1.27.37-.81,0-1.59-.41-2.08-1.08Z"/></svg>